<svg xmlns="http://www.w3.org/2000/svg" xmlns:xlink="http://www.w3.org/1999/xlink" width="0" height="0" style="position:absolute">

    <symbol id="mt-icon-arrow-left" viewBox="0 0 23.684 37.323">
        <path d="M1.036 21.35l15.246 14.945c1.4 1.37 3.686 1.37 5.082 0l1.273-1.246c1.396-1.37 1.396-3.613 0-4.98L11.002 18.66 22.637 7.255c1.396-1.37 1.396-3.612 0-4.98L21.364 1.03c-1.397-1.37-3.685-1.37-5.082 0L1.036 15.975c-.75.732-1.082 1.72-1.03 2.686-.052.968.28 1.954 1.03 2.69"/>
    </symbol>

    <symbol id="mt-icon-arrow-right" viewBox="0 0 23.684 37.323">
        <path d="M22.65 21.35L7.402 36.294c-1.4 1.37-3.686 1.37-5.082 0L1.05 35.05c-1.396-1.37-1.396-3.613 0-4.98l11.635-11.407L1.047 7.255c-1.396-1.37-1.396-3.612 0-4.98L2.32 1.03c1.397-1.37 3.685-1.37 5.082 0l15.246 14.946c.75.732 1.082 1.72 1.03 2.686.053.968-.28 1.954-1.03 2.69"/>
    </symbol>

    <symbol id="mt-icon-audio-microphone" viewBox="0 0 9.234 14.81">
        <path fill="#fff" d="M4.704 9.962c1.185 0 2.152-1.03 2.2-2.11h-.01V2.205C6.895.987 5.897 0 4.68 0S2.46.987 2.46 2.204v5.65h.04C2.552 8.93 3.518 9.96 4.704 9.96M8.634 6.15c-.336 0-.6.272-.6.607v1.035c0 1.878-1.524 3.407-3.4 3.407-1.88 0-3.403-1.53-3.403-3.408V6.757c0-.335-.278-.608-.615-.608C.28 6.15 0 6.42 0 6.756v1.035c0 2.403 1.847 4.384 4.186 4.603v1.183H2.19c-.337 0-.608.28-.608.615s.27.617.608.617h5.027c.336 0 .607-.28.607-.616s-.27-.615-.607-.615H5.264v-1.21c2.277-.315 3.97-2.247 3.97-4.577V6.757c0-.335-.264-.608-.6-.608"/>
    </symbol>

    <symbol id="mt-icon-audio-no-microphone" viewBox="0 0 12.039 16.809">
        <path fill="#fff" d="M5.897 11.264c1.185 0 2.153-1.03 2.202-2.11h-.01V3.507c0-1.217-1-2.204-2.218-2.204s-2.216.988-2.216 2.204v5.65h.04c.05 1.077 1.015 2.108 2.2 2.108M9.828 7.452c-.336 0-.6.273-.6.608v1.035c0 1.878-1.524 3.407-3.4 3.407-1.88 0-3.403-1.528-3.403-3.407V8.06c0-.335-.28-.608-.616-.608-.336 0-.616.273-.616.608v1.035c0 2.403 1.846 4.384 4.186 4.603v1.183H3.384c-.337 0-.608.28-.608.616s.27.616.608.616H8.41c.337 0 .61-.28.61-.616s-.273-.616-.61-.616H6.46v-1.21c2.277-.314 3.97-2.246 3.97-4.576V8.06c0-.335-.264-.608-.6-.608"/><path stroke="#E52629" stroke-width="2" stroke-linecap="round" stroke-miterlimit="10" fill="none" d="M1 15.81L11.04 1"/>
    </symbol>

    <symbol id="mt-icon-audio-stop" viewBox="0 0 9.812 9.812">
        <path fill="#fff" d="M8.91 0H.903C.404 0 0 .404 0 .902V8.91c0 .498.404.902.902.902h8.01c.496 0 .9-.404.9-.902V.902c0-.498-.404-.902-.9-.902"/>
    </symbol>

    <symbol id="mt-icon-award" viewBox="0 0 34.02 51.725">
        <path d="M11.558 15.696c-.233.786-.024 1.07.727 1.063 3.145-.025 6.29-.022 9.435-.004.863.004.966-.363.656-1.06H11.558zM13.182 0c1.558 2.503 3.104 5.013 4.677 7.507 1.49 2.37 3.01 4.72 4.54 7.112-.134.082-.22.183-.307.183-3.345.012-6.69.024-10.034 0-.292 0-.707-.17-.854-.398C8.16 9.65 5.146 4.88 2.126.11 2.11.076 2.105.035 2.094 0h11.09zM31.893 0c-1.396 2.245-2.777 4.5-4.188 6.735-1.513 2.396-3.054 4.77-4.678 7.306-1.828-2.863-3.587-5.59-5.29-8.348-.133-.213.043-.712.21-.998.93-1.58 1.9-3.133 2.858-4.694h11.088zM11.558 15.696h10.817c.31.697.207 1.064-.656 1.06-3.147-.017-6.29-.02-9.436.004-.75.006-.96-.278-.726-1.064M30.068 34.715c0-7.212-5.846-13.06-13.06-13.06-7.21 0-13.058 5.848-13.058 13.06s5.848 13.058 13.06 13.058c7.213 0 13.058-5.846 13.058-13.058M17.01 51.725C7.63 51.725 0 44.095 0 34.715s7.63-17.01 17.01-17.01 17.01 7.63 17.01 17.01-7.63 17.01-17.01 17.01m0-31.52c-8 0-14.51 6.51-14.51 14.51s6.51 14.51 14.51 14.51 14.51-6.51 14.51-14.51-6.51-14.51-14.51-14.51"/>
    </symbol>

    <symbol id="mt-icon-burger" viewBox="0 0 16 10">
        <path d="M15 2H1c-.6 0-1-.4-1-1s.4-1 1-1h14c.6 0 1 .4 1 1s-.4 1-1 1zm0 4H1c-.6 0-1-.4-1-1s.4-1 1-1h14c.6 0 1 .4 1 1s-.4 1-1 1zm0 4H1c-.6 0-1-.4-1-1s.4-1 1-1h14c.6 0 1 .4 1 1s-.4 1-1 1z"/>
    </symbol>

    <symbol id="mt-icon-certificate" viewBox="0 0 46.438 60.396">
        <path d="M42.328 0l.674.188c1.99.547 3.32 2.243 3.43 4.37.005.1.006.196.006.296 0 14.566.002 29.134-.002 43.7 0 2.306-1.315 4.098-3.42 4.668-.448.122-.928.184-1.395.186-3.715.014-7.43.013-11.145.005-1.566-.003-2.548-.94-2.543-2.388.003-.978.693-1.88 1.654-2.104.358-.082.738-.103 1.11-.104 3.46-.008 6.92-.018 10.38.008.572.004.77-.118.77-.74-.02-14.253-.018-28.506-.002-42.76 0-.566-.155-.723-.725-.723-11.932.016-23.866.016-35.8.002-.564 0-.726.15-.725.72.014 14.253.015 28.505-.003 42.758 0 .618.188.766.77.743 1.08-.043 2.162-.01 3.243-.014.21 0 .422-.02.68-.03v-4.915c.57.15 1 .307 1.306.83 1.007 1.722 3.226 2.487 5.13 1.878.322-.104.735-.108 1.056-.004 1.853.6 4.05-.113 5.072-1.77.318-.517.72-.786 1.373-.952v16.547h-.117c-.04-.062-.068-.143-.124-.18-2.14-1.432-4.285-2.853-6.416-4.294-.306-.206-.495-.07-.73.085-1.976 1.32-3.955 2.638-5.934 3.953-.168.112-.345.212-.62.38v-6.923c-1.493 0-2.926.03-4.356-.013-.62-.02-1.265-.1-1.85-.296C1.12 52.446.003 50.7.003 48.426 0 33.96 0 19.493 0 5.028c0-.158-.002-.316.008-.474C.115 2.43 1.448.736 3.436.188L4.11 0h38.218zM23.217 11.643c3.752 0 7.503.007 11.255-.004 1.04-.004 1.914.3 2.388 1.28.775 1.607-.27 3.205-2.146 3.327-.118.008-.235.003-.354.003H12.028c-1.324 0-2.132-.483-2.544-1.506-.515-1.28.304-2.787 1.66-3.028.345-.06.702-.07 1.055-.07 3.67-.005 7.344-.003 11.017-.003M21.922 32.986c-.006.055 0 .198-.04.325-.14.428.012.647.43.796 1.682.605 2.037 2.54.683 3.703-.333.286-.348.562-.166.927.812 1.637-.052 3.143-1.868 3.246-.413.024-.63.192-.723.608-.395 1.75-2.023 2.365-3.466 1.314-.37-.27-.698-.252-1.064.016-1.396 1.025-3.077.39-3.434-1.3-.094-.443-.32-.62-.763-.64-1.757-.082-2.653-1.643-1.847-3.215.215-.42.15-.7-.218-1.01-1.26-1.06-.892-3.08.667-3.62.473-.162.587-.374.512-.858-.27-1.737 1.26-2.987 2.89-2.366.413.16.647.106.85-.3.383-.776 1.05-1.15 1.9-1.15.83.002 1.49.372 1.862 1.123.216.438.46.478.89.314 1.447-.544 2.905.477 2.902 2.09m-5.75 7.932c2.005.082 3.744-1.594 3.826-3.688.078-2.004-1.622-3.76-3.697-3.816-1.993-.054-3.7 1.588-3.8 3.656-.098 1.995 1.587 3.76 3.67 3.847M19.68 25.54c-2.555 0-5.11-.007-7.664.002-1.032.003-1.926-.284-2.418-1.252-.832-1.63.265-3.292 2.2-3.372.51-.02 1.02-.004 1.532-.004 4.717 0 9.435-.003 14.15.002 1.6 0 2.624.894 2.66 2.292.03 1.074-.792 2.08-1.857 2.25-.328.05-.664.077-.997.078-2.535.006-5.07.003-7.605.003"/>
    </symbol>

    <symbol id="mt-icon-chat" viewBox="0 0 46.804 35.778">
        <path d="M42.487 35.41s-5.338-.957-7.278-2.297c-3.166.425-5.752.215-7.89-.256-2.914-.643-5.247-1.736-7.134-3.345-.73-.625-1.328-1.288-1.812-2.02l-.272-.022c-.325-.03-.7-.023-1.025-.07-.42-.06-.933-.136-1.303-.2 0 0-4.146 3.124-8.806 3.02l-.564.003-2.734-.002 1.383-1.557c1.162-1.304 2.203-2.494 2.83-4.1-.313-.18-.727-.39-1.05-.577-1.63-.94-3.033-2.103-4.17-3.448-.505-.6-.903-1.263-1.287-1.905l-.18-.298C.5 17.175.24 15.892.064 14.68c-.16-1.106.006-2.13.207-3.074.252-1.18.787-2.33 1.686-3.62 1.006-1.447 2.346-2.716 4.1-3.882C8.396 2.547 11.063 1.45 14.21.747c3.005-.67 6.11-.892 9.228-.654 2.64.2 5.134.707 7.41 1.503 2.148.752 3.977 1.676 5.59 2.826 1.235.88 2.168 1.716 2.937 2.63.562.67 1.014 1.42 1.413 2.084.58.964.95 2.034 1.102 3.182l.04.29c.065.446.13.908.106 1.396-.04.77-.138 1.47-.296 2.12.26.15.51.307.75.468 1.242.825 2.195 1.727 2.913 2.758.642.924 1.026 1.752 1.208 2.603.146.678.264 1.415.147 2.218-.126.87-.312 1.79-.82 2.63l-.122.204c-.27.456-.554.927-.918 1.358-.808.955-1.804 1.78-2.96 2.45l-.502.284c.684 1.053 1.364 1.872 2.11 2.707 0 0 1.364 1.655 1.315 1.91s-2.373-.304-2.373-.304m-6.76-4.566c.206.05 3.154 2.102 4.783 2.322.14.02-2.4-2.946-2.024-3.387.188-.22.433-.322.63-.405l.115-.05c.8-.378 1.67-.85 2.38-1.376.92-.683 2.25-1.638 2.383-3.148.05-.553.144-1.522.073-1.946-.107-.653-.313-1.228-.595-1.772-.585-1.14-1.906-1.918-1.906-1.918-.214-.166-.55-.39-.813-.543-.694 1.263-1.65 2.464-3.007 3.62-2.67 2.277-5.98 3.828-10.117 4.74-1.863.41-3.58.617-5.488.654.867.79 1.558 1.458 2.462 1.883 1.614.756 3.373 1.228 5.378 1.44 1.298.138 2.52.2 3.7.09.316-.03 1.844-.255 2.05-.206M21.073 2.764c-.856 0-1.73.042-2.596.122-2.906.268-5.497.923-7.917 2.002-1.288.575-2.437 1.253-3.418 2.017C5.834 7.923 4.87 9 4.195 10.195c-.476.844-.783 1.71-.938 2.65-.11.672-.09 1.388.066 2.19.188.96.553 1.854 1.148 2.82.534.862 1.263 1.676 2.226 2.487.973.82 1.53 1.254 2.77 1.842.19.09 1.63.702 1.69 1.017.06.314-2.248 3.86-2.886 5.022 1.69-.442 3.72-1.32 4.984-2.358.292-.24 2.063-1.61 2.84-1.465.667.124 1.386.224 2.197.304.29.02 1.092.083 1.204.09 1.45.08 2.956.043 4.412-.112 2.924-.312 5.49-1 7.848-2.104 1.62-.76 2.975-1.654 4.14-2.736.896-.83 1.583-1.716 2.105-2.712.126-.242.236-.488.334-.736.338-.96.393-1.308.436-1.586.17-1.072.062-2.144-.312-3.233-.303-.88-.75-1.7-1.366-2.506-.84-1.102-1.954-2.083-3.4-3C32.06 5.035 30.25 4.26 28.16 3.7c-2.32-.62-4.704-.935-7.087-.935"/>
    </symbol>

    <symbol id="mt-icon-checklist" viewBox="0 0 46.52 46.518">
        <path d="M41.053 0H5.466C2.446 0 0 2.447 0 5.466v35.587c0 3.02 2.447 5.465 5.466 5.465h35.587c3.02 0 5.467-2.446 5.467-5.465V5.466C46.52 2.446 44.072 0 41.053 0m1.59 41.053c0 .89-.7 1.59-1.59 1.59H5.466c-.89 0-1.59-.7-1.59-1.59V5.466c0-.89.7-1.59 1.59-1.59h35.57l.013-.014c.89 0 1.593.714 1.593 1.604v35.587zM34.955 12.426l-2.853-1.632c-.154-.088-.33-.135-.506-.135-.364 0-.702.195-.883.51l-.018.027-10.514 16.24-5.7-5.067c-.184-.165-.423-.256-.67-.256-.29 0-.57.123-.762.338l-2.193 2.44c-.18.2-.27.46-.255.727.015.27.135.515.338.694l8.576 7.77c.427.425.98.668 1.52.668.265 0 .64-.06.946-.342l1.012-1.567c.026-.042.053-.076.077-.103l12.27-18.954c.127-.227.16-.49.09-.743-.068-.26-.238-.48-.475-.617"/>
    </symbol>

    <symbol id="mt-icon-close" viewBox="0 0 46.52 46.518">
        <path d="M27.48 23.767l-.584-.586.585-.584 8.013-8.012c.272-.27.42-.633.42-1.018s-.147-.744-.42-1.015l-1.604-1.603c-.273-.272-.635-.42-1.02-.42s-.744.147-1.015.42l-8.012 8.01-.585.587-.586-.586-8.01-8.01c-.272-.273-.633-.422-1.018-.422-.386 0-.746.148-1.018.42l-1.602 1.603c-.272.27-.42.63-.42 1.017 0 .384.147.746.42 1.017l8.01 8.012.587.585-.585.587-8.01 8.013c-.273.27-.422.63-.422 1.014 0 .385.148.747.42 1.02l1.603 1.602c.27.27.632.42 1.018.42.385 0 .746-.148 1.018-.42l8.01-8.01.586-.586.585.585 8.012 8.01c.27.272.634.42 1.018.42.383 0 .743-.147 1.016-.42l1.604-1.602c.27-.27.42-.634.42-1.02 0-.383-.15-.742-.42-1.012l-8.013-8.013zM41.053 0H5.466C2.446 0 0 2.446 0 5.466v35.587c0 3.02 2.447 5.465 5.466 5.465h35.587c3.02 0 5.467-2.446 5.467-5.465V5.466C46.52 2.446 44.072 0 41.053 0m1.59 41.053c0 .89-.7 1.59-1.59 1.59H5.466c-.89 0-1.59-.7-1.59-1.59V5.466c0-.89.7-1.59 1.59-1.59h35.57l.013-.015c.89 0 1.593.715 1.593 1.605v35.588z"/>
    </symbol>

    <symbol id="mt-icon-correct" viewBox="0 0 26.663 25.873">
        <path d="M.563 17.1c-.694-.614-.757-1.67-.136-2.363l2.237-2.49c.62-.688 1.682-.748 2.37-.134l5.255 4.673L20.61.843c.463-.805 1.49-1.08 2.296-.62l2.912 1.666c.804.46 1.084 1.48.624 2.28L13.886 23.563c-.017.022-.035.036-.047.056l-1.08 1.674c-.873.873-2.43.744-3.473-.29L.563 17.102z"/>
    </symbol>

    <symbol id="mt-icon-correct-box" viewBox="0 0 46.623 46.623">
        <path d="M42.737 0H3.885C1.74 0 0 1.74 0 3.885v38.853c0 2.146 1.74 3.885 3.885 3.885h38.853c2.146 0 3.886-1.738 3.886-3.885V3.885C46.624 1.74 44.884 0 42.737 0M36.09 13.057L23.53 32.453c-.017.022-.035.034-.047.055l-1.08 1.674c-.872.874-2.43.744-3.472-.29L10.21 25.99c-.695-.614-.757-1.672-.137-2.364l2.237-2.49c.62-.688 1.682-.748 2.37-.134l5.255 4.672 10.32-15.942c.463-.805 1.49-1.08 2.296-.62l2.913 1.665c.807.462 1.086 1.48.626 2.28"/>
    </symbol>

    <symbol id="mt-icon-course-grammar" viewBox="0 0 60.234 60.233">
        <path fill="#585555" d="M48.82 3.416c4.41 0 7.998 3.587 7.998 7.997V48.82c0 4.41-3.588 7.997-7.997 7.997H11.414c-4.41 0-7.997-3.588-7.997-7.996V11.414c0-4.41 3.587-7.997 7.997-7.997H48.82m0-3.416H11.414C5.11 0 0 5.11 0 11.413V48.82c0 6.304 5.11 11.413 11.413 11.413H48.82c6.304 0 11.414-5.11 11.414-11.412V11.414C60.234 5.11 55.124 0 48.82 0M22.74 41.784c-.07 0-.144-.004-.216-.012l-3.052-.35c-.504-.06-.957-.31-1.274-.71-.317-.397-.46-.895-.402-1.4l.292-2.556c.013-.11-.106-.322-.208-.37l-.064-.03-1.337-.743c-.022-.014-.088-.04-.188-.04-.116 0-.2.034-.23.06l-2.015 1.6c-.334.267-.755.412-1.184.412-.586 0-1.13-.263-1.493-.72L9.46 34.52c-.317-.396-.46-.894-.402-1.402.058-.506.31-.96.707-1.275l2.014-1.6c.086-.07.15-.3.11-.405l-.024-.075-.41-1.463c-.024-.11-.202-.273-.314-.286l-2.556-.293c-1.044-.118-1.797-1.065-1.677-2.11l.348-3.05c.11-.964.924-1.69 1.894-1.69.072 0 .145.004.216.012l2.556.293h.012c.133 0 .317-.12.358-.208l.032-.064.742-1.335c.06-.093.052-.33-.018-.418l-1.6-2.016c-.317-.398-.46-.896-.402-1.402.058-.507.31-.96.707-1.276l2.405-1.91c.335-.265.755-.412 1.184-.412.586 0 1.13.262 1.494.72l1.602 2.015c.04.048.177.12.322.12.038 0 .066-.005.08-.01l.076-.025 1.462-.413c.11-.022.274-.2.286-.312l.293-2.556c.11-.963.923-1.69 1.892-1.69.072 0 .145.005.217.013l3.05.35c.506.058.96.31 1.276.708.317.4.46.896.402 1.402l-.293 2.556c-.012.112.106.322.208.37l.064.03 1.335.742c.02.014.088.04.188.04.116 0 .2-.034.23-.058l2.016-1.6c.335-.266.755-.413 1.185-.413.587 0 1.132.263 1.494.72l1.91 2.403c.653.822.517 2.024-.308 2.678l-2.014 1.6c-.087.07-.15.3-.11.404l.023.075.413 1.462c.023.11.2.274.312.286l2.557.293c1.044.12 1.796 1.066 1.677 2.11l-.35 3.052c-.11.963-.925 1.69-1.894 1.69-.072 0-.145-.005-.217-.013l-2.556-.293h-.013c-.13 0-.315.12-.356.21l-.032.062-.742 1.337c-.062.094-.052.332.018.42l1.6 2.014c.654.822.516 2.023-.306 2.678l-2.403 1.91c-.335.267-.756.412-1.185.412-.586 0-1.13-.262-1.493-.72l-1.6-2.014c-.04-.05-.18-.122-.325-.122-.038 0-.066.006-.08.012l-.074.023-1.463.414c-.11.023-.273.2-.286.312l-.292 2.554c-.11.965-.925 1.69-1.894 1.69m-4.028-7.11c.83.4 1.374 1.383 1.27 2.3l-.293 2.556 3.048.35.296-2.556c.104-.917.856-1.75 1.756-1.954l1.333-.38c.22-.076.46-.117.707-.117.707 0 1.403.323 1.816.842l1.602 2.017 2.402-1.91-1.6-2.017c-.575-.723-.63-1.84-.136-2.62l.67-1.214c.366-.757 1.212-1.282 2.07-1.282.08 0 .155.004.23.013l2.556.293.35-3.052-2.557-.29c-.916-.106-1.75-.858-1.953-1.758l-.38-1.333c-.305-.872.003-1.95.726-2.524l2.014-1.6-1.908-2.405-2.017 1.602c-.383.304-.886.47-1.416.47-.438 0-.864-.118-1.206-.334l-1.213-.67c-.83-.4-1.374-1.382-1.27-2.3l.293-2.556-3.052-.35-.29 2.557c-.106.916-.858 1.75-1.758 1.953l-1.332.378c-.222.08-.46.118-.71.118-.705 0-1.4-.322-1.813-.842l-1.602-2.015-2.405 1.91 1.602 2.016c.574.724.63 1.842.136 2.622l-.67 1.213c-.367.758-1.213 1.283-2.073 1.283-.076 0-.153-.004-.228-.013l-2.556-.292-.35 3.052 2.557.292c.918.105 1.75.857 1.955 1.758l.378 1.334c.304.87-.003 1.948-.726 2.522l-2.014 1.6 1.91 2.406 2.015-1.6c.383-.306.886-.474 1.416-.474.438 0 .864.12 1.206.336l1.216.67zm4.09-3.405c-.272 0-.546-.02-.816-.062-2.765-.418-4.767-2.93-4.56-5.718.21-2.798 2.565-4.99 5.364-4.99.205 0 .413.013.617.036 2.95.338 5.075 3.012 4.738 5.962-.312 2.72-2.61 4.77-5.344 4.77m-.01-8.862c-1.806 0-3.327 1.416-3.462 3.224-.134 1.8 1.16 3.423 2.944 3.693.176.026.354.04.53.04 1.766 0 3.25-1.326 3.45-3.083.218-1.905-1.155-3.633-3.06-3.85-.134-.015-.27-.024-.4-.024M43.38 35.924c-.086 0-.173.003-.26.01-1.827.142-3.198 1.744-3.057 3.57.134 1.72 1.59 3.067 3.312 3.067.086 0 .174-.003.26-.01 1.827-.14 3.2-1.743 3.057-3.57-.134-1.72-1.588-3.066-3.31-3.066m1.652 4.74c-.38.444-.906.712-1.486.757-.057.006-.115.008-.172.008-1.13 0-2.084-.884-2.172-2.012-.092-1.198.808-2.25 2.006-2.343.057-.004.115-.006.172-.006 1.13 0 2.083.883 2.17 2.012.045.58-.14 1.142-.518 1.585M53.104 37.897c-.064-.828-.794-1.468-1.638-1.402l-.873.067c-.02.002-.043.003-.065.003-.312 0-.55-.158-.582-.226-.144-.35-.244-1.15-.14-1.348l.56-.657c.548-.64.472-1.604-.165-2.15l-.898-.77c-.276-.236-.627-.366-.99-.366-.448 0-.87.193-1.16.53l-.57.666c-.17.2-.42.305-.566.305-.024 0-.037-.002-.037-.002-.352-.147-.996-.646-1.064-.856l-.067-.862c-.064-.828-.796-1.468-1.64-1.403l-1.18.092c-.84.064-1.468.8-1.403 1.637l.067.873c.026.326-.143.61-.223.648-.156.064-.635.182-1.03.182-.212 0-.298-.033-.315-.04l-.658-.564c-.275-.235-.627-.365-.99-.365-.448 0-.87.195-1.16.533l-.77.9c-.264.31-.393.703-.36 1.11s.22.774.528 1.04l.666.568c.254.218.327.528.302.605-.146.35-.645.995-.855 1.062l-.863.068c-.838.064-1.467.8-1.402 1.637l.09 1.184c.066.828.795 1.467 1.64 1.402l.874-.068c.02-.002.043-.002.064-.002.314 0 .55.158.58.225.145.348.246 1.15.145 1.346l-.564.66c-.546.637-.472 1.602.167 2.148l.9.77c.274.236.627.366.99.366.446 0 .87-.193 1.158-.53l.57-.67c.17-.195.42-.303.566-.303.026 0 .038.006.038.006.352.146.995.645 1.064.856l.066.86c.062.79.73 1.408 1.52 1.408.04 0 .078-.002.12-.006l1.18-.092c.405-.03.774-.22 1.04-.53.266-.31.395-.702.36-1.107l-.065-.872c-.025-.325.143-.61.225-.647.157-.065.638-.183 1.03-.183.21 0 .298.033.315.04l.658.565c.275.234.628.364.99.364.448 0 .87-.194 1.16-.532l.77-.9c.546-.64.472-1.604-.167-2.15l-.664-.57c-.255-.215-.327-.524-.302-.602.146-.352.645-.995.855-1.064l.86-.066c.405-.03.774-.22 1.04-.53.266-.31.395-.702.363-1.108l-.092-1.183zm-1.14 1.547c-.067.078-.16.125-.26.133l-.872.068c-1.025.08-1.805 1.744-1.812 1.76-.244.584.02 1.406.612 1.914l.665.57c.157.133.176.38.042.537l-.77.9c-.073.083-.18.132-.292.132-.064 0-.16-.017-.246-.09l-.668-.572c-.242-.207-.586-.308-1.05-.308-.53 0-1.153.14-1.47.27-.588.244-.986 1.014-.926 1.79l.068.874c.008.1-.025.197-.092.275s-.158.124-.26.132l-1.182.093c-.207.02-.393-.144-.408-.35l-.068-.874c-.08-1.026-1.744-1.804-1.76-1.81-.147-.063-.31-.093-.48-.093-.506 0-1.068.276-1.435.704l-.57.667c-.07.084-.177.133-.29.133-.063 0-.16-.016-.245-.09l-.9-.772c-.157-.134-.176-.38-.043-.538l.572-.666c.602-.703.152-2.244.04-2.52-.23-.55-.9-.932-1.64-.932-.05 0-.102.002-.152.006l-.872.07c-.21.018-.393-.144-.408-.35l-.092-1.183c-.017-.205.144-.394.35-.41l.875-.066c1.027-.08 1.804-1.746 1.81-1.762.245-.584-.018-1.407-.612-1.914l-.666-.57c-.076-.065-.123-.157-.13-.26s.023-.2.09-.277l.77-.9c.07-.083.177-.132.29-.132.064 0 .16.016.247.09l.666.57c.243.21.587.31 1.052.31.533 0 1.155-.14 1.47-.27.587-.245.984-1.015.925-1.792l-.068-.873c-.017-.206.144-.394.35-.41l1.182-.092c.212-.015.393.144.41.35l.066.874c.03.396.292.79.798 1.203.354.29.748.518.963.608.145.062.307.093.478.093.505 0 1.07-.277 1.435-.705l.57-.665c.072-.084.178-.13.29-.13.065 0 .16.013.248.09l.9.77c.156.134.176.38.04.537l-.568.665c-.603.706-.153 2.247-.04 2.52.23.548.902.93 1.64.93.05 0 .103 0 .153-.005l.872-.066c.208-.018.394.143.41.35l.09 1.182c.006.1-.025.198-.094.276"/>
    </symbol>

    <symbol id="mt-icon-course-introduction" viewBox="0 0 60.234 60.234">
        <path fill="#585555" d="M48.82 3.416c4.41 0 7.998 3.587 7.998 7.997V48.82c0 4.41-3.588 7.998-7.997 7.998H11.414c-4.41 0-7.997-3.588-7.997-7.997V11.414c0-4.41 3.587-7.997 7.997-7.997H48.82m0-3.416H11.414C5.11 0 0 5.11 0 11.413V48.82c0 6.305 5.11 11.414 11.413 11.414H48.82c6.305 0 11.414-5.11 11.414-11.413V11.414C60.234 5.11 55.124 0 48.82 0"/><path fill-rule="evenodd" clip-rule="evenodd" fill="#585555" d="M48.442 40.625H31.015v1.34c.065.04.127.088.184.145l6.707 6.71c.364.366.4.926.082 1.245-.32.318-.88.28-1.243-.084l-5.732-5.73v1.77c0 .516-.37.938-.82.938-.45 0-.82-.422-.82-.938v-1.795l-5.756 5.756c-.366.366-.926.403-1.245.085-.32-.32-.282-.88.083-1.244l6.708-6.71c.064-.063.135-.116.208-.16v-1.324H11.79c-1.718 0-3.124-1.407-3.124-3.127V16.39c0-1.72 1.406-3.127 3.125-3.127h17.584v-2.19c0-.515.37-.937.82-.937.452 0 .82.422.82.938v2.19h17.428c1.72 0 3.126 1.406 3.126 3.126v21.106c0 1.72-1.406 3.127-3.126 3.127m1.407-24.233c0-.776-.632-1.407-1.408-1.407h-36.65c-.776 0-1.407.63-1.407 1.407v21.106c0 .775.63 1.406 1.406 1.406h36.652c.776 0 1.407-.63 1.407-1.406V16.392zm-5.654 7.425c-.28 0-.542-.07-.772-.196L34.63 30.18c.003.05.007.1.007.153 0 .894-.723 1.616-1.615 1.616-.76 0-1.395-.524-1.566-1.23l-7.43-2.87c-.295.356-.742.583-1.24.583-.215 0-.418-.043-.605-.12l-3.806 3.81c.006.054.01.11.01.166 0 .892-.724 1.615-1.616 1.615s-1.615-.723-1.615-1.614c0-.893.723-1.616 1.615-1.616.276 0 .536.07.764.192l3.68-3.683c-.026-.118-.042-.24-.042-.366 0-.893.723-1.616 1.615-1.616.74 0 1.36.497 1.553 1.176l7.476 2.888c.296-.334.728-.546 1.208-.546.29 0 .562.078.8.212l8.772-6.54c-.008-.06-.012-.123-.012-.187 0-.89.723-1.614 1.614-1.614s1.615.723 1.615 1.615c0 .894-.723 1.617-1.614 1.617"/><path fill="#585555" d="M37.445 50.78c-.385 0-.768-.162-1.053-.445l-4.877-4.88v.564c0 .792-.592 1.437-1.32 1.437-.73 0-1.32-.645-1.32-1.438v-.59l-4.903 4.904c-.538.538-1.456.578-1.95.083-.255-.254-.386-.616-.36-.992.023-.357.18-.697.442-.96l6.708-6.71.062-.06v-.57H11.792c-2 0-3.626-1.628-3.626-3.628V16.392c0-2 1.626-3.627 3.626-3.627h17.083v-1.69c0-.792.592-1.437 1.32-1.437.73 0 1.32.645 1.32 1.438v1.69h16.927c2 0 3.627 1.626 3.627 3.626v21.106c0 2-1.628 3.627-3.628 3.627H31.515v.596l.037.036 6.71 6.71c.56.562.597 1.437.08 1.952-.233.234-.552.363-.897.363m-6.93-7.74L37.1 49.63c.142.142.35.27.536.083.12-.12.082-.37-.082-.536l-6.708-6.71c-.028-.028-.06-.054-.096-.076l-.234-.147v-2.114H48.44c1.45 0 2.628-1.178 2.628-2.627V16.39c0-1.45-1.178-2.627-2.627-2.627H30.517v-2.69c0-.232-.15-.437-.32-.437s-.32.205-.32.438v2.69H11.79c-1.448 0-2.626 1.177-2.626 2.626v21.106c0 1.45 1.178 2.627 2.626 2.627h18.083v2.107l-.244.146c-.04.023-.078.053-.11.084l-6.708 6.71c-.09.09-.145.206-.152.32-.004.052 0 .15.07.218.185.186.394.06.536-.083l6.61-6.612v3.004c0 .23.15.437.32.437s.32-.205.32-.438v-2.98zm17.926-3.636H11.793c-1.05 0-1.907-.855-1.907-1.906V16.392c0-1.052.856-1.908 1.907-1.908h36.65c1.052 0 1.907.856 1.907 1.908v21.106c0 1.05-.856 1.906-1.91 1.906m-36.648-23.92c-.5 0-.907.406-.907.907v21.107c0 .5.407.906.907.906h36.65c.5 0 .907-.406.907-.906V16.392c0-.5-.41-.908-.91-.908H11.793zM16.767 34.4c-1.166 0-2.115-.95-2.115-2.115 0-1.167.95-2.116 2.115-2.116.22 0 .44.036.647.103l3.265-3.266c-.008-.065-.01-.13-.01-.192 0-1.167.948-2.116 2.115-2.116.852 0 1.62.52 1.946 1.29l6.97 2.693c.567-.456 1.375-.588 2.06-.332l8.322-6.203c.03-1.14.967-2.06 2.115-2.06 1.166 0 2.113.95 2.113 2.115 0 1.167-.947 2.116-2.113 2.116-.24 0-.48-.042-.707-.122l-8.355 6.23c-.05 1.123-.978 2.02-2.113 2.02-.885 0-1.66-.542-1.97-1.35l-6.902-2.667c-.497.42-1.188.595-1.83.448l-3.438 3.44c-.018 1.152-.96 2.084-2.115 2.084m0-3.232c-.615 0-1.115.5-1.115 1.116 0 .613.5 1.115 1.115 1.115s1.115-.5 1.115-1.114c0-.04-.002-.08-.006-.117l-.023-.237 4.208-4.21.308.126c.445.18.97.044 1.274-.323l.23-.276 8.006 3.094.062.254c.123.5.567.85 1.082.85.615 0 1.115-.5 1.115-1.115 0-.036-.002-.07-.006-.105l-.026-.28 9.28-6.918.28.154c.165.09.344.135.533.135.613 0 1.113-.502 1.113-1.117 0-.614-.5-1.115-1.113-1.115-.615 0-1.116.5-1.116 1.115 0 .044.005.087.01.13l.034.286-9.27 6.907-.282-.163c-.448-.255-1.04-.157-1.385.23l-.23.262-8.033-3.104-.068-.24c-.135-.478-.576-.812-1.07-.812-.616 0-1.117.5-1.117 1.116 0 .08.01.164.03.252l.063.27-4.142 4.144-.326-.177c-.164-.09-.34-.135-.527-.135"/>
    </symbol>

    <symbol id="mt-icon-course-lifeskills" viewBox="0 0 60.234 60.234">
        <path fill="#585555" d="M48.82 3.416c4.41 0 7.998 3.587 7.998 7.997V48.82c0 4.41-3.588 7.998-7.997 7.998H11.414c-4.41 0-7.997-3.588-7.997-7.997V11.414c0-4.41 3.587-7.997 7.997-7.997H48.82m0-3.416H11.414C5.11 0 0 5.11 0 11.413V48.82c0 6.305 5.11 11.414 11.413 11.414H48.82c6.304 0 11.414-5.11 11.414-11.413V11.414C60.234 5.11 55.124 0 48.82 0"/><path fill="#585555" d="M43.775 45.265H16.58c-1.383-4.5-.146-6.717 4.226-7.732 1.28-.3 2.595-.535 3.807-1.02 1.73-.69 1.99-1.947.845-3.387-2.864-3.605-3.103-7.708-1.995-11.915.797-3.026 3.552-4.88 6.594-4.905 3.044-.025 5.86 1.784 6.676 4.788 1.153 4.258.965 8.43-1.99 12.08-1.107 1.367-.88 2.56.765 3.275 1.084.472 2.274.73 3.44.982 4.82 1.043 5.86 2.66 4.827 7.835m-1.89-1.925c.443-2.65.148-3.138-2.197-3.76-1.447-.382-2.943-.615-4.346-1.118-3.366-1.207-4.017-3.91-1.886-6.756 2.424-3.236 2.633-6.882 1.228-10.558-.78-2.037-2.555-2.978-4.738-2.922-2.12.054-3.788 1.103-4.47 3.066-1.262 3.625-1.11 7.23 1.31 10.404 2.152 2.82 1.495 5.55-1.876 6.76-1.458.525-3.017.76-4.518 1.168-2.244.61-2.624 1.343-1.935 3.716h23.428zM15.484 40.62c-.24.772-.205 1.202-.154 1.858H6.29c-.724-4.135-.038-5.19 3.842-6.078.467-.107.942-.188 1.396-.333 1.73-.56 1.846-1.02.832-2.497-1.876-2.73-2.013-5.742-1.006-8.77.713-2.142 2.81-3.326 5.1-3.245 2.122.075 4.014 1.405 4.692 3.588.894 2.876.535 5.477-1.152 8.046-1.157 1.762-1.018 2.183.997 2.946.218.082.89.207 1.348.35-.64.146-1.44.294-1.816.396-.668.182-1.695-.103-2.253-.834-.86-1.125-.932-1.766-.088-3.047 1.594-2.216 1.527-3.81 1.404-5.94-.124-2.15-1.424-3.495-3.322-3.54-1.88-.044-3.32 1.283-3.482 3.39-.163 2.116.002 4.156 1.483 5.932 1.42 1.703.894 3.8-1.17 4.71-1.136.5-2.414.676-3.62 1.023-.91.263-1.652.505-1.48 2.036 2.35 0 4.95.01 7.49.01M54.006 42.517h-9.168c.084-.6.156-1.047-.133-1.754 2.474 0 4.92-.03 7.232-.03.58-1.316.002-1.835-1.004-2.105-1.155-.31-2.355-.495-3.465-.92-2.364-.91-2.965-3.062-1.387-5.022 1.587-1.97 1.644-4.216 1.235-6.483-.29-1.614-1.402-2.63-3.156-2.663-1.73-.032-2.9.83-3.288 2.486-.55 2.35-.406 4.624 1.15 6.654.387.505.764 1.118.855 1.726.306 2.005-1.026 3.094-2.985 2.54-.4-.114-.978-.193-1.67-.36.598-.25 1.267-.49 1.676-.67 1.162-.51 1.333-1.137.485-2.2-2.004-2.51-2.053-5.45-1.33-8.373.61-2.48 2.764-3.882 5.24-3.787 2.387.09 4.453 1.754 4.928 4.232.545 2.842.397 5.643-1.552 8.015-.933 1.135-.43 1.717.65 2.137.555.215 1.152.32 1.735.453 3.937.905 4.542 1.798 3.953 6.124"/>
    </symbol>

    <symbol id="mt-icon-course-listening" viewBox="0 0 60.233 60.233">
        <path fill="#585555" d="M48.82 3.416c4.41 0 7.997 3.587 7.997 7.997V48.82c0 4.41-3.588 7.997-7.996 7.997H11.414c-4.41 0-7.997-3.588-7.997-7.996V11.414c0-4.41 3.587-7.997 7.997-7.997H48.82m0-3.416H11.414C5.11 0 0 5.11 0 11.413V48.82c0 6.304 5.11 11.413 11.413 11.413H48.82c6.304 0 11.413-5.11 11.413-11.412V11.414C60.233 5.11 55.123 0 48.82 0"/><path fill="#565656" d="M41.798 23.488c-.002 2.863-.655 5.537-2.527 7.767-.93 1.106-2.022 2.078-3.077 3.075-1.247 1.18-2.593 2.263-3.784 3.495-1.508 1.56-2.386 3.46-2.583 5.645-.058.65-.037 1.322-.187 1.953-.458 1.937-2.22 3.342-4.16 3.397-2.102.06-3.905-1.212-4.52-3.187-.326-1.05-1.065-1.52-1.946-1.24-.875.28-1.217 1.098-.893 2.137 1.045 3.34 4.284 5.55 7.712 5.262 3.59-.302 6.416-2.98 6.87-6.525.097-.773.084-1.564.23-2.326.308-1.603 1.27-2.84 2.435-3.912 1.16-1.07 2.364-2.093 3.57-3.112 4.572-3.865 6.478-8.784 5.662-14.69-1.062-7.672-8.733-12.86-16.284-11.1-5.53 1.29-9.445 5.53-10.4 11.265-.16.962.355 1.75 1.232 1.884.87.134 1.588-.472 1.717-1.45.76-5.765 6.38-9.912 12.09-8.92 5.238.91 8.864 5.25 8.843 10.584M41.798 23.488c.02-5.335-3.604-9.674-8.844-10.585-5.71-.992-11.33 3.155-12.09 8.92-.13.978-.847 1.584-1.718 1.45-.876-.135-1.39-.922-1.23-1.883.953-5.734 4.87-9.976 10.4-11.264 7.55-1.76 15.222 3.427 16.28 11.098.818 5.907-1.088 10.826-5.66 14.69-1.207 1.02-2.41 2.044-3.57 3.113-1.166 1.073-2.127 2.31-2.434 3.913-.146.762-.135 1.553-.232 2.326-.453 3.546-3.28 6.224-6.87 6.525-3.427.29-6.667-1.92-7.71-5.26-.325-1.04.017-1.858.892-2.137.882-.28 1.62.19 1.947 1.24.613 1.974 2.417 3.245 4.52 3.186 1.94-.057 3.7-1.462 4.16-3.398.148-.63.127-1.302.186-1.953.196-2.187 1.075-4.087 2.58-5.646 1.193-1.232 2.538-2.314 3.786-3.495 1.055-.998 2.148-1.97 3.078-3.076 1.872-2.23 2.526-4.903 2.528-7.766M30.892 16.63c-.11 0-.222.003-.332.008-3.317.157-6.087 2.71-6.443 5.94-.097.872-.092 1.79-.087 2.675.002.337.003.674 0 1.01-.008.835.255 1.12 1.086 1.172 1.088.07 2.08.622 2.723 1.515.634.884.84 1.985.566 3.02-.412 1.554-1.768 2.604-3.455 2.677-.513.02-.893.367-.924.84-.03.447.283.848.727.93.077.015.166.02.27.02.08 0 .165-.002.28-.01 2.442-.175 4.516-2.035 4.93-4.425.43-2.475-.842-4.87-3.094-5.824-.51-.216-1.506-.063-1.418-2.198 0 0 .042-.42.044-.562.04-2.778 2.38-4.99 5.152-4.993 2.78 0 5.023 2.087 5.113 4.9.02.59.38.868.896.868h.02c.248 0 .463.022.62-.145.174-.182.263-.386.254-.68-.017-.476-.075-.927-.175-1.398-.662-3.11-3.5-5.34-6.753-5.34"/>
    </symbol>

    <symbol id="mt-icon-course-pronunciation" viewBox="0 0 60.234 60.233">
        <path fill="#585555" d="M48.82 3.416c4.41 0 7.998 3.587 7.998 7.997V48.82c0 4.41-3.588 7.997-7.997 7.997H11.414c-4.41 0-7.997-3.588-7.997-7.996V11.414c0-4.41 3.587-7.997 7.997-7.997H48.82m0-3.416H11.414C5.11 0 0 5.11 0 11.413V48.82c0 6.304 5.11 11.413 11.413 11.413H48.82c6.304 0 11.414-5.11 11.414-11.412V11.414C60.234 5.11 55.124 0 48.82 0"/><path fill="#585555" d="M30.32 39.68c3.906 0 7.32-3.296 7.455-7.196l.003-15.88c0-4.14-3.384-7.507-7.54-7.507-4.157 0-7.54 3.367-7.54 7.507V32.53c.27 3.874 3.76 7.15 7.623 7.15m-5.038-23.076c0-2.696 2.223-4.882 4.937-4.882 2.542 0 4.658 1.92 4.91 4.398h-5.14c-.246 0-.4.13-.4.31v1.108c0 .18.154.305.4.305h5.203v1.94H29.99c-.246 0-.4.08-.4.258v1.11c0 .18.154.356.4.356h5.203v1.832H29.99c-.246 0-.4.136-.4.316v1.108c0 .18.154.3.4.3h5.203V27H29.99c-.246 0-.4.087-.4.266v1.11c0 .178.154.348.4.348h5.203v1.83H29.99c-.246 0-.4.145-.4.324v1.11c0 .178.154.398.4.398h5.203v.027c-.108 2.203-2.123 4.648-4.87 4.648-2.743 0-4.826-2.452-5.04-4.67V16.603zM41.44 27.803c-.82 0-1.507.66-1.507 1.5v2.913c0 5.398-4.35 9.79-9.75 9.79-5.398 0-9.75-4.392-9.75-9.79v-2.912c0-.828-.724-1.5-1.56-1.5-.838 0-1.563.672-1.563 1.5v2.912c0 6.527 5.076 12.12 11.545 12.734l.197.018v3.9h-5.54c-.828 0-1.5.67-1.5 1.508s.672 1.51 1.5 1.51h14.14c.826 0 1.5-.672 1.5-1.51 0-.837-.674-1.508-1.5-1.508h-5.906v-3.963l.18-.025c6.387-.875 11.022-6.202 11.022-12.664v-2.912c0-.842-.686-1.5-1.507-1.5"/>
    </symbol>

    <symbol id="mt-icon-course-reading" viewBox="0 0 60.234 60.233">
        <path fill="#585555" d="M48.82 3.416c4.41 0 7.998 3.587 7.998 7.997V48.82c0 4.41-3.588 7.997-7.998 7.997H11.413c-4.41 0-7.997-3.588-7.997-7.996V11.414c0-4.41 3.587-7.997 7.997-7.997H48.82m0-3.416H11.413C5.11 0 0 5.11 0 11.413V48.82c0 6.304 5.11 11.413 11.413 11.413H48.82c6.304 0 11.414-5.11 11.414-11.412V11.414C60.234 5.11 55.124 0 48.82 0M51.722 18.114c0-.375-.048-.763-.15-1.124-.58-2.046-2.185-3.257-4.34-3.26-4.505-.01-9.012-.007-13.52-.002-.888 0-1.74.19-2.48.7-.41.283-.77.642-1.163.977.01 0-.01.003-.017-.004-.042-.037-.085-.074-.12-.117-.893-1.063-2.06-1.548-3.42-1.552-4.535-.012-9.07-.013-13.605 0-1.41.005-2.37.533-3.276 1.648-.53.655-.8 1.422-.8 2.225 0 0-.088 26.155-.076 26.223.234 1.376.848 2.404 2.056 3.103.758.436 1.526.556 2.38.557 4.395 0 8.76.005 13.154-.004.938-.002 1.85-.156 2.222.96.238.71.012.8 1.448.8 1.58 0 1.213-.065 1.532-.8.478-1.102 1.118-.963 2.31-.96 4.394.01 8.787.01 13.182-.003.488 0 .994-.03 1.46-.16 1.983-.55 3.223-2.172 3.225-4.234.01-8.325.005-16.648-.003-24.972M28.58 44.798c0 .09-.01.18-.02.37-1.093-.814-2.295-.796-3.505-.792-3.79.01-7.09-.055-10.88-.058-1.29-.002-2.19-.646-2.49-1.79-.078-.294-.095-.61-.095-.918-.005-7.572-.005-14.747-.003-22.32 0-1.417.656-2.344 1.862-2.63.235-.055.486-.065.73-.065 4.102-.004 7.71.055 11.812.06 1.3 0 2.213.646 2.503 1.77.067.26.08.536.08.805.005 8.523.005 17.046.004 25.568m20.48-3.168c-.002.477-.09.985-.276 1.42-.348.813-1.05 1.22-1.93 1.31-.31.032-.626.02-.938.02-3.65 0-7.07.007-10.72-.003-1.206-.004-2.282-.023-3.282.813v-.467c0-8.484-.228-16.968-.234-25.452 0-1.058.252-1.903 1.248-2.362.363-.167.744-.242 1.148-.244 4.158-.017 8.29-.016 12.447-.008 1.51.003 2.412.858 2.547 2.347.012.128.006.258.006.386.002 7.412 0 14.826-.017 22.24"/>
    </symbol>

    <symbol id="mt-icon-course-speaking" viewBox="0 0 60.234 60.233">
        <path fill="#585555" d="M48.82 3.416c4.41 0 7.998 3.587 7.998 7.997V48.82c0 4.41-3.588 7.997-7.998 7.997H11.413c-4.41 0-7.997-3.588-7.997-7.996V11.414c0-4.41 3.587-7.997 7.997-7.997H48.82m0-3.416H11.413C5.11 0 0 5.11 0 11.413V48.82c0 6.304 5.11 11.413 11.413 11.413H48.82c6.303 0 11.414-5.11 11.414-11.412V11.414C60.234 5.11 55.124 0 48.82 0"/><path fill="#585555" d="M13.625 39.837c-.387 0-.784-.024-1.18-.074-.465-.057-.867-.352-1.06-.777-.197-.428-.157-.924.104-1.314.01-.018.873-1.31 1.783-2.86-2.718-.157-4.882-2.418-4.882-5.174V18.915c0-2.858 2.327-5.183 5.184-5.183h22.354c2.856 0 5.182 2.325 5.182 5.183v10.722c0 2.857-2.325 5.183-5.182 5.183H21.883c-2.152 3.286-4.993 5.017-8.258 5.017m-.347-23.675c-1.403 0-2.546 1.14-2.546 2.546v11.007c0 1.402 1.143 2.545 2.546 2.545h2.04c.48 0 .93.252 1.182.662.252.414.27.93.05 1.357-.513 1-1.115 2.04-1.65 2.927 2.335-.627 3.947-2.58 4.942-4.267.25-.422.704-.68 1.195-.68h15.187c1.402 0 2.545-1.145 2.545-2.546V18.708c0-1.405-1.144-2.546-2.546-2.546H13.278zM46.66 21.41h-5.55v2.702h5.55c1.367 0 2.48 1.11 2.48 2.48v10.722c0 1.366-1.113 2.48-2.48 2.48h-1.984c-.473 0-.91.243-1.154.646-.246.4-.264.9-.05 1.32.5.976 1.087 1.99 1.61 2.852-2.276-.61-3.848-2.514-4.816-4.155-.243-.412-.686-.664-1.164-.664H24.308c-1.368 0-2.48-1.113-2.48-2.48V34.9c-.8 1.208-1.696 2.2-2.67 2.974.278 2.594 2.48 4.623 5.15 4.623h14.044c2.15 3.286 4.995 5.02 8.258 5.02.387 0 .784-.027 1.18-.076.465-.058.867-.35 1.062-.778.195-.425.154-.924-.105-1.312-.013-.02-.873-1.31-1.785-2.862 2.72-.155 4.88-2.416 4.88-5.172V26.59c0-2.857-2.323-5.18-5.182-5.18M20.574 24.596c0 .975-.792 1.766-1.768 1.766-.975 0-1.766-.79-1.766-1.766 0-.977.79-1.767 1.766-1.767s1.768.79 1.768 1.766M26.778 24.596c0 .975-.79 1.766-1.767 1.766-.975 0-1.766-.79-1.766-1.766 0-.977.79-1.767 1.767-1.767.977 0 1.768.79 1.768 1.766M32.982 24.596c0 .975-.79 1.766-1.767 1.766-.976 0-1.767-.79-1.767-1.766 0-.977.79-1.767 1.767-1.767.976 0 1.767.79 1.767 1.766"/>
    </symbol>

    <symbol id="mt-icon-course-test" viewBox="0 0 60.234 60.234">
        <path fill="#585555" d="M48.822 3.416c4.408 0 7.996 3.587 7.996 7.997V48.82c0 4.41-3.588 7.998-7.996 7.998h-37.41c-4.41 0-7.996-3.588-7.996-7.997V11.414c0-4.41 3.587-7.997 7.997-7.997h37.41m0-3.416h-37.41C5.11 0 0 5.11 0 11.413V48.82c0 6.305 5.11 11.414 11.413 11.414h37.41c6.302 0 11.41-5.11 11.41-11.413V11.414C60.234 5.11 55.126 0 48.824 0M47.982 33.054s-.586 1.023-.996 1.445c0 0 2.773.818 3.666 1.09-2.396 3.184-6.41 4.708-10.02 3.585-3.6-1.116-4.944-2.865-5.303-5.223 1.885.436 3.844.902 5.682 1.297 3.03.647 5.594-.995 6.316-4.014.887-3.708-1.712-7.125-5.834-7.593-8.275-.94-16.557-1.843-24.834-2.77-2.128-.24-4.19-.613-6.165.686-1.056.705-1.71 1.637-1.935 1.986-.227.348-.388.845-.527 1.286-.982 3.116.717 6.38 3.8 7.31 2.046.62 4.088 1.26 6.28 1.935-1.41 2.924-2.727 5.65-4.244 8.793 2.474-1.19 3.985-.414 4.957 1.946l2.342-6.12 2.635 6.777c.844-2.83 2.513-3.143 4.81-2.282l-3.402-6.917c.808.188 1.216.263 1.61.38 4.286 1.296 8.576 2.577 12.85 3.906 3.378 1.048 6.622.764 9.562-1.18 1.27-.837 3.074-2.747 4.025-4.867-1.65-.504-3.77-1.07-5.278-1.46m-29.72-.65c-2.673-.806-4.957-1.4-7.167-2.196-1.375-.496-2.127-3.424-1.478-5.072.707-1.797 2.833-3.1 4.75-2.898 1.707.18 3.412.373 5.407.593-2.407 2.94-2.76 5.956-1.51 9.573m26.968-4.88c1.506 2.464.322 5.697-2.268 6.197-2.244.432-4.03-1.213-3.44-3.36.368-1.34.087-1.834-1.248-2.072-.655-.116-1.402-.248-2.274-.386 2.763-3.754 7.37-3.422 9.23-.38m-11.844 9.405c-2.524-.74-5.067-1.43-7.55-2.29-.688-.24-1.43-.897-1.743-1.554-1.384-2.916-1.45-5.842.72-8.437.476-.568 1.506-1.012 2.243-.96 3.07.212 6.127.636 9.59 1.028-4.124 3.84-4.262 7.996-1.875 12.564-.56-.09-1.016-.24-1.385-.35m1.625-6.272c.125-1.165.47-1.693.47-1.693s2.336.376 2.58.43c.243.055.235.308.235.308.002.38-.222.902-.187 1.673.025.54.232 1.602.777 2.137l-3.78-.852s-.242-.62-.094-2.002"/>
    </symbol>

    <symbol id="mt-icon-course-vocabulary" viewBox="0 0 60.234 60.233">
        <path fill="#585555" d="M48.82 3.416c4.41 0 7.998 3.587 7.998 7.997V48.82c0 4.41-3.588 7.997-7.998 7.997H11.413c-4.41 0-7.997-3.588-7.997-7.996V11.414c0-4.41 3.587-7.997 7.997-7.997H48.82m0-3.416H11.413C5.11 0 0 5.11 0 11.413V48.82c0 6.304 5.11 11.413 11.413 11.413H48.82c6.304 0 11.414-5.11 11.414-11.412V11.414C60.234 5.11 55.124 0 48.82 0M48.023 15.65h-35.69c-2.84 0-4.19.995-4.19 3.393v23.82c0 2.397 1.35 3.392 4.19 3.392h35.69c2.838 0 4.19-.994 4.19-3.393v-23.82c0-2.397-1.352-3.39-4.19-3.39m1.47 27.118c0 .23-.186.416-.416.416h-37.8c-.23 0-.415-.186-.415-.416V19.136c0-.23.186-.417.416-.417h37.8c.23 0 .416.186.416.416V42.77zM22.1 23.924c-.205-.638-.616-.925-1.274-.925h-1.85c-.657 0-1.068.286-1.273.924l-4.254 12.48c-.267.782.103 1.296.925 1.296h1.357c.658 0 1.07-.308 1.254-.945l.535-1.852c.05-.17.204-.287.38-.287h3.987c.177 0 .332.117.38.287l.535 1.852c.206.638.616.945 1.274.945h1.357c.822 0 1.193-.514.925-1.295l-4.254-12.48zm-1.286 7.813H18.97c-.264 0-.455-.254-.38-.507l.693-2.35c.267-.926.596-2.53.596-2.53h.04s.33 1.604.596 2.53l.677 2.352c.072.253-.118.505-.38.505m13.062-2.95h-5.91c-.844 0-1.528.685-1.528 1.528v.032c0 .843.683 1.526 1.527 1.526h5.91c.843 0 1.527-.683 1.527-1.527v-.032c0-.843-.683-1.526-1.525-1.526M45.6 34.616h-4.27c-.658 0-1.13.062-1.13.062v-.04s.492-.433 1.13-1.338l5.24-7.444c.328-.453.452-.864.452-1.42v-.328c0-.72-.392-1.11-1.13-1.11h-8.44c-.844 0-1.528.683-1.528 1.526v.032c0 .843.685 1.526 1.526 1.526h3.88c.656 0 1.13-.06 1.13-.06v.04s-.493.43-1.13 1.336L36.11 34.8c-.33.453-.453.864-.453 1.42v.35c0 .74.392 1.13 1.13 1.13h8.81c.845 0 1.528-.683 1.528-1.526v-.03c0-.844-.684-1.528-1.526-1.528"/>
    </symbol>

    <symbol id="mt-icon-course-writing" viewBox="0 0 60.234 60.233">
        <path fill="#585555" d="M48.82 3.416c4.41 0 7.998 3.587 7.998 7.997V48.82c0 4.41-3.588 7.997-7.997 7.997H11.414c-4.41 0-7.997-3.588-7.997-7.996V11.414c0-4.41 3.587-7.997 7.997-7.997H48.82m0-3.416H11.414C5.11 0 0 5.11 0 11.413V48.82c0 6.304 5.11 11.413 11.413 11.413H48.82c6.304 0 11.414-5.11 11.414-11.412V11.414C60.234 5.11 55.124 0 48.82 0"/><path fill="#555" d="M37.612 47.368c0 .777-.758.826-2.71.826H21.233v-7.6s-2.4 1.342-2.962 1.713c-.188.125-.382.418-.383.63l-.046 7.155c.004.8.294 1.45 1.365 1.424l15.565.026c4.5 0 5.543-1.674 6.075-2.206 1.64-1.64 8.193-9.69 8.193-9.69.463-.608 1.19-.86 1.19-2.923V12.12c0-1.13-.777-1.836-2.012-1.836H19.857c-1.196 0-1.624.56-1.624 1.762v17.24s1.75-1.218 2.215-1.53c.588-.392.535-1.19.535-1.19l-.052-13.372h26s.047 21.785.047 23.44c0 .733.078 1.947-1.396 1.927l-5.692.054c-1.047 0-2.33 1.146-2.33 2.408l.054 6.346m2.36-.7l-.04-4.92c0-.51.232-.71.557-.723.096-.005 4.208-.007 4.208-.007l-4.725 5.65zM29.406 33.028c1.062-1.994 3.322-6.494 3.394-6.677-.19-.012-5.227.12-7.68.168-.245.004-.508.147-.73.283C20.1 29.44 9.423 36.596 8.735 37.106c-1.052.698-1.18 1.735-.706 2.72.245.52.186.444.475.94.537.926.946 1.527 1.51 2.438.893 1.44 1.828 1.658 3.284.76 4.31-2.655 11.095-7.484 15.395-10.155.29-.182.553-.476.714-.78m-17.293 9.336L9.83 38.606l15.905-10.468 3.15-.1.71 1.053-1.338 2.58-16.144 10.694z"/>
    </symbol>

    <symbol id="mt-icon-enlarge" viewBox="0 0 47.157 47.157">
        <path d="M31.264 6.995h7.624c.704 0 1.274.57 1.274 1.273v7.625c0 .702.57 1.272 1.272 1.272h4.45c.702 0 1.272-.57 1.272-1.272V1.273C47.156.57 46.586 0 45.884 0h-14.62c-.702 0-1.272.57-1.272 1.273v4.45c0 .702.57 1.272 1.272 1.272M6.995 15.893V8.27c0-.704.57-1.274 1.272-1.274h7.625c.703 0 1.273-.57 1.273-1.273v-4.45C17.165.57 16.595 0 15.893 0H1.273C.568 0 0 .57 0 1.273v14.62c0 .702.57 1.272 1.272 1.272h4.45c.703 0 1.273-.57 1.273-1.272M15.893 40.162H8.27c-.705 0-1.274-.57-1.274-1.272v-7.625c0-.703-.57-1.273-1.273-1.273h-4.45c-.704 0-1.273.57-1.273 1.273v14.62c0 .702.57 1.272 1.272 1.272h14.62c.703 0 1.273-.57 1.273-1.273v-4.448c0-.704-.57-1.274-1.272-1.274M40.162 31.265v7.624c0 .703-.57 1.272-1.273 1.272h-7.626c-.703 0-1.272.57-1.272 1.273v4.45c0 .702.57 1.27 1.272 1.27h14.62c.703 0 1.273-.568 1.273-1.27v-14.62c0-.704-.57-1.274-1.273-1.274h-4.45c-.703 0-1.272.572-1.272 1.275"/>
    </symbol>

    <symbol id="mt-icon-flash-cards" viewBox="0 0 51.921 40.14">
        <path d="M39.146 6.493c.265 0 .498-.008.73.002.71.03 1.433-.02 2.12.114 2.168.43 3.645 2.292 3.66 4.515.005.53 0 1.064 0 1.627.332 0 .636.002.94 0 .762-.005 1.52.007 2.254.27 1.804.64 3.06 2.354 3.062 4.27.008 6.1.015 12.197-.003 18.297-.008 2.546-2.117 4.56-4.728 4.55-7.51-.022-15.02-.006-22.528-.008-2.498 0-4.995.016-7.492-.015-2.38-.028-4.382-2.1-4.397-4.49-.003-.577 0-1.153 0-1.762h-1.673c-1.007.005-1.92-.29-2.72-.895-1.213-.918-1.846-2.146-1.864-3.677-.007-.628 0-1.258 0-1.923-.317 0-.603.012-.89-.002-.68-.03-1.377.013-2.036-.128-2.1-.446-3.57-2.27-3.573-4.418-.014-6.09-.015-12.18 0-18.27C.014 2.01 2.076 0 4.617 0h29.917c2.568 0 4.61 2.037 4.61 4.6V6.494zm8.036 30.388c.908.005 1.485-.656 1.483-1.49-.018-5.96-.01-11.92-.01-17.88 0-.965-.544-1.507-1.515-1.508-1.734 0-28.386.036-29.578.01-1.117-.024-1.558.754-1.556 1.556.017 5.934.016 11.866.002 17.8-.003.913.617 1.52 1.515 1.515 4.935-.024 24.706-.023 29.66-.002M6.507 24.08v-.272c-.002-4.242-.01-8.483.004-12.725.002-.466.08-.947.22-1.393.608-1.952 2.374-3.196 4.484-3.196h24.66c0-.74.033-1.44-.01-2.14-.04-.61-.647-1.094-1.28-1.094-9.972 0-30.147.01-30.257.03-.582.117-1.072.623-1.07 1.446.01 5.968.008 18.062.012 18.142.032.576.44 1.137 1.006 1.188.726.064 1.463.015 2.23.015m35.467-11.328h.423c0-.516-.023-.99.006-1.46.053-.863-.527-1.574-1.56-1.56-1.803.024-21.502.024-29.546.03h-.053c-.963.004-1.487.532-1.487 1.5.004 5.24.008 10.48.01 15.72 0 .763-.013 1.525-.008 2.288.006.764.562 1.326 1.324 1.342.5.01 1 .003 1.498 0 .057 0 .114-.018.184-.028 0-.14-.01-8.953.005-13.238.008-1.71.785-3.02 2.226-3.93.785-.496 1.662-.665 2.583-.665"/>
    </symbol>

    <symbol id="mt-icon-flip-horizontal" viewBox="0 0 42.099 45.665">
        <path d="M29.913 9.914l-1.83-.094c-1.517-.077-3.31-.16-5.107-.195-4.614-.094-8.625.223-12.26.966-3.333.682-5.923 1.744-7.696 3.155C1.182 15.21.235 16.95.038 19.225c-.13 1.48.08 3.06.638 4.823.197-.963.517-1.832.972-2.655 1.562-2.827 4.777-4.733 9.56-5.665 2.933-.572 6.296-.83 10.582-.808 2.118.01 4.01.068 6.138.19l1.754.104-6.238 5.65c-.347.314-.547.743-.564 1.207-.02.467.146.91.468 1.25l.86.91c.675.717 1.816.762 2.546.102L37.9 14.237c.645-.704.613-1.33.613-1.33.047-.498-.172-1.044-.51-1.4L27.69.568c-.675-.716-1.817-.76-2.547-.1l-.93.844c-.346.314-.546.74-.564 1.206s.147.908.47 1.248l5.797 6.15zM19.222 23.592c.018-.465-.148-.907-.47-1.247l-.86-.91c-.675-.72-1.816-.764-2.545-.103L4.114 31.427c-.365.33-.65.803-.65 1.307 0 0 .003.815.587 1.425l10.34 10.938c.674.716 1.827.76 2.557.1l.936-.843c.347-.312.55-.74.567-1.205.02-.465-.146-.908-.466-1.247l-5.798-6.15 1.83.093c1.517.076 3.31.16 5.106.196 4.615.092 8.626-.224 12.26-.967 3.333-.68 5.923-1.743 7.697-3.155 1.836-1.463 2.784-3.204 2.982-5.478.128-1.468-.076-3.03-.622-4.77-.19.902-.51 1.733-.988 2.6-1.562 2.827-4.777 4.732-9.558 5.665-2.935.57-6.297.83-10.584.81-2.12-.01-4.015-.07-6.138-.194l-1.754-.1 6.238-5.654c.346-.315.548-.742.566-1.208"/>
    </symbol>

    <symbol id="mt-icon-flip-vertical" viewBox="0 0 45.664 42.1">
        <path d="M9.913 12.187l-.093 1.83c-.077 1.517-.16 3.31-.196 5.106-.093 4.615.224 8.625.966 12.26.683 3.333 1.743 5.922 3.156 7.696 1.462 1.837 3.203 2.784 5.48 2.982 1.48.13 3.06-.08 4.822-.64-.963-.196-1.83-.516-2.654-.97-2.827-1.562-4.733-4.778-5.665-9.56-.573-2.934-.83-6.297-.81-10.582.01-2.118.07-4.012.192-6.14l.102-1.753 5.652 6.24c.313.345.742.545 1.206.562.465.02.91-.148 1.248-.47l.912-.858c.716-.676.76-1.817.1-2.547L14.237 4.198c-.704-.645-1.33-.613-1.33-.613-.498-.047-1.044.172-1.4.51L.568 14.41c-.716.675-.76 1.818-.1 2.547l.843.93c.312.348.74.548 1.205.565.465.02.907-.147 1.248-.468l6.15-5.797zM23.592 22.877c-.465-.018-.908.148-1.248.468l-.91.86c-.718.675-.763 1.816-.102 2.547l10.095 11.233c.33.364.802.648 1.306.648 0 0 .816-.002 1.426-.586L45.096 27.71c.716-.674.76-1.828.1-2.557l-.843-.937c-.312-.346-.74-.55-1.205-.567-.466-.02-.908.145-1.247.466l-6.15 5.798.092-1.83c.077-1.517.16-3.31.197-5.107.092-4.614-.225-8.626-.967-12.26-.682-3.333-1.743-5.923-3.155-7.697C30.457 1.183 28.716.236 26.442.038c-1.47-.128-3.03.076-4.77.622.902.19 1.733.51 2.6.987 2.826 1.562 4.732 4.777 5.664 9.56.572 2.933.83 6.296.81 10.583-.01 2.12-.07 4.013-.193 6.137l-.1 1.754-5.654-6.236c-.316-.348-.743-.55-1.208-.567"/>
    </symbol>

    <symbol id="mt-icon-hide" viewBox="0 0 39.223 26.817">
        <path d="M20.094.004c3.765.113 7.225 1.213 10.394 3.233 3.86 2.46 6.68 5.84 8.688 9.924.063.13.064.347.002.475-2.555 5.125-6.262 9.106-11.557 11.448-4.063 1.8-8.29 2.228-12.62 1.15-5.608-1.395-9.89-4.68-13.107-9.407-.682-1-1.234-2.09-1.825-3.15-.076-.14-.09-.378-.023-.517C2.393 8.394 5.8 4.635 10.562 2.19 13.55.656 16.732-.062 20.094.004m-.187 3.23c-1.937.014-3.53.232-5.075.72C9.896 5.52 6.312 8.73 3.728 13.142c-.078.135-.06.4.02.542 1.733 3.034 4.036 5.537 7.044 7.335 4.714 2.816 9.68 3.374 14.827 1.384 4.353-1.682 7.543-4.737 9.877-8.736.14-.238.082-.397-.034-.596-1.038-1.766-2.27-3.38-3.765-4.785-3.404-3.193-7.398-4.975-11.79-5.05"/>
    </symbol>

    <symbol id="mt-icon-incorrect" viewBox="0 0 25.304 25.302">
        <path d="M24.682 20.17c.83.827.83 2.175 0 3.006l-1.508 1.505c-.83.83-2.172.83-3.006 0l-7.517-7.517-7.517 7.518c-.83.83-2.178.83-3.008 0L.62 23.177c-.83-.83-.83-2.18 0-3.006l7.52-7.52L.623 5.134c-.83-.83-.83-2.18 0-3.008L2.127.622c.83-.83 2.178-.83 3.008 0l7.518 7.518L20.17.622c.83-.83 2.176-.83 3.006 0l1.508 1.505c.83.827.83 2.176 0 3.006l-7.52 7.518 7.518 7.52z"/>
    </symbol>

    <symbol id="mt-icon-incorrect-box" viewBox="0 0 46.623 46.623">
        <path d="M42.738 0H3.886C1.74 0 0 1.74 0 3.885v38.853c0 2.146 1.74 3.885 3.886 3.885H42.74c2.145 0 3.884-1.738 3.884-3.885V3.885C46.624 1.74 44.884 0 42.738 0m-7.595 30.875c.83.827.83 2.176 0 3.006l-1.507 1.505c-.83.83-2.174.83-3.007 0l-7.518-7.518-7.517 7.518c-.83.83-2.18.83-3.01 0l-1.503-1.504c-.83-.83-.83-2.178 0-3.005l7.52-7.52-7.52-7.517c-.83-.83-.83-2.18 0-3.008l1.504-1.503c.83-.83 2.18-.83 3.01 0l7.516 7.517 7.517-7.517c.83-.83 2.176-.83 3.006 0l1.507 1.505c.83.827.83 2.176 0 3.006l-7.52 7.518 7.52 7.52z"/>
    </symbol>

    <symbol id="mt-icon-mail" viewBox="0 0 42.531 30.41">
        <path d="M42.53 3.615V26.37c0 1.624-1.334 4.04-3.97 4.04H4.184C.88 30.41 0 27.37 0 26.37V4.04C0 2.762.82 0 4.04 0h34.52c.99 0 3.97.196 3.97 3.615m-38.01-1.2S20.678 18.6 20.67 18.574c.45.472.95.36 1.365-.01.01 0 16.098-16.15 16.098-16.15H4.52zm2.295 25.688h28.8l-9.947-9.925c-1.18 1.177-2.39 2.386-3.604 3.595-.54.537-.898.535-1.44-.012-1.166-1.172-2.33-2.347-3.495-3.52-.09-.09-.184-.174-.217-.205-3.387 3.375-6.745 6.725-10.098 10.068m20.51-11.56l11.068 11.03s.714.507 1.198.005c.222-.23.41-.53.503-.832.114-.377.156-1.187.156-1.187L40.236 3.67 27.325 16.544zM15.22 16.45L2.543 3.81s0 14.888.004 22.2c0 .27-.015.565.084.806.138.338.34.664.576.94.202.233.708-.037.708-.037L15.22 16.45z"/>
    </symbol>

    <symbol id="mt-icon-map" viewBox="0 0 45.769 47.482">
        <path d="M44.388 36.234c-.793-.79-1.776-1.444-3.1-2.06-2.193-1.022-4.523-1.596-6.513-2.022-.666-.144-1.342-.256-1.997-.365l-.438-.074c-.12-.02-.24-.03-.355-.03-.81 0-1.443.498-1.574 1.24-.145.83.413 1.554 1.357 1.76.108.025.223.046.346.065 2.44.386 4.435.867 6.276 1.513 1.328.467 2.706 1.038 3.785 2.05.375.35.567.677.57.97.002.297-.188.63-.563.992-.017.017-.034.03-.053.047-.023.018-.046.036-.067.056-1.038.927-2.325 1.468-3.448 1.875-3.192 1.157-6.824 1.836-11.433 2.135-1.504.1-3 .147-4.446.147-3.093 0-6.12-.227-9.002-.674-2.177-.338-5.02-.88-7.707-2.068-1.193-.528-2.123-1.06-2.782-1.932-.352-.467-.234-.765-.072-.994.264-.373.573-.7.898-.943 1.696-1.27 3.7-1.854 5.605-2.345.84-.215 1.716-.38 2.562-.54.52-.1 1.056-.202 1.585-.315.467-.1.818-.255 1.072-.473.53-.455.643-1.14.29-1.792-.316-.59-.973-.87-1.747-.743-2.842.466-4.977.974-6.922 1.646-1.278.44-2.935 1.094-4.395 2.23-.735.572-1.747 1.503-2.042 2.965-.292 1.45.197 2.747 1.495 3.97 1.413 1.328 3.155 2.063 4.516 2.556 4.772 1.726 9.653 2.183 13.373 2.388.198.01 6.89.03 7.337 0 .906-.057 2.187-.19 3.11-.286 3.885-.407 6.99-1.075 9.776-2.103 1.338-.494 3.06-1.23 4.51-2.546 1-.91 1.543-1.998 1.568-3.15.03-1.134-.446-2.224-1.376-3.15M12.355 25.453c2.2 5.05 5.208 10.164 9.193 15.63.397.546.847.82 1.34.82.494 0 .947-.278 1.344-.825 2.183-3.017 4.174-6.114 5.918-9.207 1.91-3.385 3.305-6.473 4.413-9.385 1.444-3.788 1.81-7.26 1.81-8.84s-.414-3.703-.598-4.256c-.915-2.765-2.588-5.107-4.84-6.773C28.676.944 25.946.04 23.046 0c-4.3-.055-7.88 1.622-10.647 4.985C9.885 8.04 8.928 11.807 9.55 16.18c.41 2.875 1.3 5.82 2.805 9.273M12.272 13.9c-.043-4.484 1.89-7.783 5.737-9.806 1.592-.836 3.258-1.26 4.95-1.26 2.67 0 5.192 1.045 7.297 3.025 1.97 1.853 3.056 4.193 3.226 6.954.18 2.892-.592 5.615-1.366 7.898-1.27 3.734-3.062 7.452-5.64 11.7-.834 1.375-1.74 2.742-2.615 4.065-.332.502-.676 1.02-1.012 1.534-.284-.435-.565-.866-.843-1.288-.972-1.484-1.89-2.89-2.78-4.344-2.164-3.533-3.825-6.866-5.078-10.188-.913-2.418-1.85-5.294-1.878-8.29M22.875 20.738h.017c3.867 0 7.044-2.793 7.044-6.76 0-5.734-5.116-6.928-7.004-6.95-3.78 0-7.088 2.962-7.09 6.855-.003 3.884 3.152 6.855 7.033 6.855m.22-2.432c-2.374 0-4.3-1.95-4.3-4.05 0-1.613 1.24-4.13 3.957-4.13 2.714 0 4.27 1.77 4.23 4.035-.045 2.583-1.642 4.146-3.887 4.146"/>
    </symbol>

    <symbol id="mt-icon-minimize" viewBox="0 0 45.157 45.157">
        <path d="M43.884 10.17H36.26c-.703 0-1.273-.568-1.273-1.27V1.272C34.987.57 34.417 0 33.713 0h-4.45c-.7 0-1.27.57-1.27 1.273v14.62c0 .702.57 1.272 1.27 1.272h14.62c.704 0 1.274-.57 1.274-1.272v-4.45c0-.702-.57-1.272-1.273-1.272M10.172 1.273v7.624c0 .704-.57 1.274-1.273 1.274H1.272C.57 10.173 0 10.74 0 11.445v4.45c0 .702.57 1.27 1.273 1.27h14.62c.703 0 1.272-.568 1.272-1.27V1.273C17.165.57 16.597 0 15.895 0h-4.45c-.704 0-1.273.57-1.273 1.273M1.273 34.986h7.624c.704 0 1.274.57 1.274 1.273v7.624c0 .702.57 1.272 1.273 1.272h4.45c.702 0 1.272-.57 1.272-1.272v-14.62c0-.703-.57-1.273-1.273-1.273H1.272c-.702 0-1.27.57-1.27 1.274v4.448c0 .704.568 1.274 1.27 1.274M34.986 43.884V36.26c0-.704.57-1.273 1.273-1.273h7.624c.702 0 1.272-.57 1.272-1.273v-4.45c0-.702-.57-1.27-1.272-1.27h-14.62c-.703 0-1.273.568-1.273 1.27v14.62c0 .704.57 1.274 1.274 1.274h4.448c.704 0 1.274-.57 1.274-1.274"/>
    </symbol>

    <symbol id="mt-icon-moveable" viewBox="0 0 50.708 49.3">
        <path d="M34.55 36.83c-.88-.88-1.87-1.055-2.752-.173L28.16 40.47v-9.377c0-.936.02-2.105-1.26-2.105h-2.26c-1.41 0-1.48 1.17-1.48 2.105v9.512l-4.04-3.813c-.88-.883-2.16-.978-3.04-.097l-.486.43c-.882.883-1.154 2.39-.272 3.27l8.26 8.277c1.006.956 2.49.747 3.373-.135l.04-.042c.042-.04 8.232-8.234 8.232-8.234.882-.88.637-2.118-.245-3l-.432-.43zM8.798 26.99h9.297c.935 0 2.065-.346 2.065-1.28v-2.514c0-.935-1.13-1.207-2.065-1.207h-9.43l3.812-3.654c.883-.88.978-1.966.097-2.848l-.43-.39c-.883-.882-2.39-1.105-3.27-.225L.597 23.16c-.427.428-.61 1.033-.592 1.637 0 .02-.005.042-.005.06 0 .9.546 1.565 1.188 2.147l7.82 7.82c.882.883 2.12.64 3-.243l.43-.43c.884-.88 1.057-2.256.176-3.14l-3.816-4.02zM15.967 12.435c.88.88 2.272 1.055 3.153.173l4.04-3.814v10.02c0 .935.48 1.177 1.248 1.177h1.7c.934 0 2.052-.288 2.052-1.223V8.66l3.638 3.813c1.648 1.648 3.226-.334 3.226-.334.882-.884 1.374-2.12.223-3.27l-7.823-7.813C26.682.315 25.928-.018 25.322 0c-.834 0-1.612.53-2.207 1.184l-7.822 7.82c-.882.882-.638 2.12.244 3l.43.43zM49.976 23.172L41.7 14.895c-.88-.88-2.12-.637-3 .245l-.43.43c-.883.88-1.056 1.885-.174 2.768l3.814 3.652H31.327c-.935 0-1.167.896-1.167 1.83v1.892c0 .934.332 1.278 1.266 1.278h10.618l-3.814 4.024c-.882.882-.977 2.15-.096 3.034l.43.48c.883.883 2.39 1.154 3.27.272l8.277-8.26c.882-.882.747-2.487-.134-3.368"/>
    </symbol>

    <symbol id="mt-icon-negative" viewBox="0 0 40 34.91">
        <path fill="#999" d="M38 0H2C.9 0 0 .9 0 2v24.718c0 1.1.9 2 2 2h6.125c.5 0 .906.406.906.906V34l.02.007c.048.504.46.903.977.903.25 0 .47-.1.644-.252l.012.005 8.744-5.7c.113-.067.52-.245 1.664-.245H38c1.1 0 2-.9 2-2V2c0-1.1-.9-2-2-2M10.746 16.46c-.748 0-1.36-.612-1.36-1.36v-1.48c0-.75.612-1.36 1.36-1.36h18.508c.748 0 1.36.61 1.36 1.36v1.48c0 .748-.612 1.36-1.36 1.36H10.746z"/>
    </symbol>

    <symbol id="mt-icon-negative-2" viewBox="0 0 40 34.943">
        <path fill="#999" d="M36.913.014L3.048 0C.898-.022 0 .765 0 2.672V26.11c0 1.835 1.71 2.64 3.523 2.637l4.445-.02c.477.004 1.032.434 1.032.91v4.433c0 .7.9 1.117 1.475.716.004-.002.064-.005.067-.008 2.382-1.686 4.74-3.45 7.182-5.044.825-.538 1.938-.91 2.917-.92l16.29.02c2.473 0 3.07-.68 3.07-3.187V3.193C40 .68 39.472.016 36.913.013M28.52 19.34c.566.563.566 1.484 0 2.05l-1.028 1.026c-.565.565-1.48.565-2.05 0l-5.13-5.128-5.127 5.128c-.566.565-1.486.565-2.053 0l-1.025-1.025c-.565-.565-.565-1.486 0-2.05l5.13-5.13-5.13-5.128c-.565-.567-.565-1.487 0-2.052l1.025-1.026c.566-.566 1.486-.566 2.053 0l5.128 5.13 5.128-5.13c.567-.566 1.486-.566 2.052 0L28.52 7.03c.566.564.566 1.484 0 2.052l-5.13 5.13 5.13 5.128z"/>
    </symbol>

    <symbol id="mt-icon-positive" viewBox="0 0 40 34.91">
        <path fill="#999" d="M38 0H2C.9 0 0 .9 0 2v24.718c0 1.1.9 2 2 2h6.125c.5 0 .906.406.906.906V34l.02.007c.05.504.46.903.977.903.25 0 .47-.1.645-.25l.01.003 8.745-5.7c.112-.067.517-.245 1.664-.245H38c1.1 0 2-.9 2-2V2c0-1.1-.9-2-2-2m-8.284 15.037c0 .685-.56 1.245-1.245 1.245h-6.547v6.547c0 .684-.56 1.244-1.245 1.244h-1.355c-.685 0-1.245-.56-1.245-1.245V16.28H11.53c-.685 0-1.245-.56-1.245-1.245V13.68c0-.684.56-1.244 1.245-1.244h6.548V5.89c0-.686.56-1.246 1.245-1.246h1.355c.685 0 1.245.56 1.245 1.245v6.546h6.548c.686 0 1.246.56 1.246 1.245v1.357z"/>
    </symbol>

    <symbol id="mt-icon-positive-2" viewBox="0 0 40 34.944">
        <path fill="#999" d="M36.666.015L2.926 0C.773-.02 0 .766 0 2.674V26.11c0 1.836 1.464 2.64 3.278 2.637l4.568-.02c.476.005 1.154.434 1.154.91v4.434c0 .702.656 1.12 1.23.716.003-.002-.062-.005-.058-.007 2.383-1.687 4.68-3.452 7.12-5.045.825-.538 1.907-.91 2.888-.92l16.52.022c2.472-.004 3.3-.682 3.3-3.188V3.194C40 .68 39.226.017 36.666.015m-7.98 8.283l-8.507 13.138c-.012.015-.025.022-.032.036l-.732 1.135c-.59.592-1.646.504-2.35-.196l-5.91-5.352c-.47-.417-.513-1.133-.093-1.603l1.516-1.686c.42-.467 1.14-.508 1.604-.092l3.56 3.164 6.99-10.798c.313-.546 1.01-.732 1.556-.42l1.974 1.128c.543.314.732 1.005.42 1.546"/>
    </symbol>

    <symbol id="mt-icon-preview" viewBox="0 0 34.005 36.87">
        <path d="M5.198 36.87c-.415 0-1.825-.032-2.566-.45l-.205-.11C1.58 35.867 0 35.04 0 33.37V3.61C0 2.722 1.007 1.242 1.87.707 2.738.17 4.432-.496 6.49.56l25.613 14.257c1.15.64 1.877 1.787 1.9 2.99.023 1.275-.582 2.416-1.62 3.05l-25.39 15.5c-.56.342-1.163.513-1.795.513m-.156-4.006S29.49 18.124 29.49 17.94c0-.186-24.84-13.826-24.84-13.826-.048-.006-.155-.173-.452-.08-.172.04-.198.285-.198.337v28.246c0 .294.35.728 1.042.248"/>
    </symbol>

    <symbol id="mt-icon-question" viewBox="0 0 40 34.911">
        <path fill="#999" d="M40 3.192v22.433c0 2.504-.924 3.183-3.396 3.186L20 28.79c-.978.008-2.047.38-2.872.918-2.44 1.592-4.71 3.355-7.09 5.04-.004.002.103.004.1.007-.573.4-1.138-.016-1.138-.716v-4.43c0-.477-.723-.905-1.2-.91l-4.61.02c-1.812.004-3.19-.8-3.19-2.635V2.67C0 .767.74-.02 2.89 0l33.676.015C39.123.017 40 .68 40 3.192m-21.534 15.42h1.062c.637 0 .928-.23 1.06-.785l.054-.46c.318-2.678 4.617-3.4 4.617-7.563 0-3.132-2.813-4.99-5.812-4.99-1.885 0-3.316.688-4.112 1.22-.61.398-.61.9-.187 1.485l.45.662c.37.584.982.584 1.593.265.478-.238 1.167-.53 1.963-.53 1.46 0 2.397.955 2.397 2.202 0 2.705-4.554 3.58-4.554 6.95v.425c0 .714.75 1.116 1.466 1.116M17 22.907c0 .743.75.705 1.466.705h1.062c.716 0 1.472.04 1.472-.704v-.93c0-.715-.756-1.365-1.472-1.365h-1.062c-.716 0-1.466.65-1.466 1.367v.93z"/>
    </symbol>

    <symbol id="mt-icon-recommendation" viewBox="0 0 58.184 58.184">
        <path d="M56.52 26.592h-4.257c-1.237-11-10.67-20.48-22.67-21.075V1.663c0-.92-.582-1.663-1.5-1.663s-1.5.744-1.5 1.663V5.56c-11 1-20.233 10.03-21.44 21.03h-3.49c-.92 0-1.663.582-1.663 1.5s.744 1.5 1.663 1.5H5.05c.407 13 10.542 23 23.542 23.237v3.692c0 .918.58 1.662 1.5 1.662s1.5-.744 1.5-1.663v-3.863c11-1.396 20.395-11.066 20.774-23.066h4.154c.92 0 1.663-.58 1.663-1.5s-.744-1.498-1.662-1.498M31.593 49.3v-2.753c0-.92-.58-1.662-1.5-1.662s-1.5.743-1.5 1.662v2.956c-11-.236-19.813-8.91-20.216-19.91h3.26c.92 0 1.663-.582 1.663-1.5s-.744-1.5-1.663-1.5H8.515c1.176-9 9.077-16.73 18.077-17.703v2.747c0 .92.58 1.662 1.5 1.662s1.5-.744 1.5-1.663V8.84c10 .584 18.098 7.752 19.31 17.752H46.55c-.92 0-1.662.58-1.662 1.5s.743 1.5 1.662 1.5h2.495c-.373 10-7.45 18.338-17.45 19.707M28.71 23.536c-3.1 0-5.618 2.52-5.618 5.617 0 3.098 2.52 5.617 5.617 5.617 3.096 0 5.615-2.52 5.615-5.617 0-3.096-2.52-5.617-5.616-5.617"/>
    </symbol>

    <symbol id="mt-icon-reveal" viewBox="0 0 39.223 26.817">
        <path d="M20.094.004c3.765.113 7.225 1.212 10.394 3.233 3.86 2.46 6.68 5.84 8.688 9.924.063.13.064.346.002.474-2.555 5.125-6.26 9.107-11.557 11.45C23.558 26.88 19.33 27.31 15 26.23c-5.608-1.395-9.89-4.68-13.107-9.406-.68-1-1.234-2.092-1.825-3.152-.076-.137-.09-.377-.023-.515C2.393 8.393 5.8 4.634 10.562 2.19 13.55.657 16.732-.062 20.094.004m-.187 3.23c-1.937.015-3.53.232-5.075.722C9.896 5.518 6.312 8.73 3.728 13.14c-.078.134-.06.4.02.54 1.733 3.035 4.036 5.538 7.044 7.336 4.714 2.817 9.68 3.374 14.827 1.384 4.353-1.683 7.543-4.737 9.877-8.736.14-.24.082-.398-.033-.597-1.04-1.766-2.27-3.38-3.766-4.784-3.403-3.194-7.398-4.976-11.79-5.05M14.508 13.345c.066-2.9 2.375-5.163 5.25-5.06 2.98.11 5.064 2.56 4.962 5.403-.096 2.62-2.49 4.88-5.195 4.824-2.808-.054-5.082-2.395-5.017-5.167"/>
    </symbol>

    <symbol id="mt-icon-rules" viewBox="0 0 54.896 37.58">
        <path fill="#fff" d="M0 35.442c.21.176.356.346.54.444.93.5 1.87.983 2.81 1.468.81.418 1.557.215 2.255-.28 1.616-1.143 2.474-2.753 2.737-4.67.326-2.374.02-4.733-.286-7.085-.046-.357-.007-.59.27-.86 1.04-1.01 1.155-2.69.116-3.688-.62-.595-.678-1.152-.523-1.868.04-.196.067-.396.095-.594.384-2.81 1.718-4.915 4.427-6.02 2.24-.915 4.454-1.89 6.707-2.768 2.69-1.05 5.406-2.037 8.12-3.03.74-.273 1.316-.105 1.675.393.57.793.19 1.695-.854 2.09-3.814 1.442-7.63 2.888-11.438 4.344-.984.375-1.95.793-3.006 1.224.268.102.447.178.633.24 4.283 1.427 8.57 2.847 12.85 4.29.585.197 1.116.18 1.696-.014 7.096-2.378 14.197-4.742 21.296-7.11 1.312-.437 2.63-.862 3.936-1.32.856-.298 1.114-1.202.51-1.763-.204-.188-.497-.3-.77-.39C45.42 5.673 37.04 2.87 28.652.1c-.43-.14-.987-.13-1.42.013-5.02 1.642-10.03 3.322-15.04 4.992L2.08 8.48c-.733.246-1.037.566-1.048 1.095-.01.54.31.888 1.063 1.142.396.134.796.26 1.193.393 1.443.484 2.886.97 4.338 1.456-1.76 3.218-1.755 3.22-2.36 7.158-.026.18-.196.378-.355.488-1.694 1.185-1.693 3.52.033 4.637.285.183.33.35.29.66-.463 3.585-1.977 6.644-4.547 9.18-.23.227-.437.477-.686.752m11.138-18.7c-.103.933-.19 1.776-.294 2.618-.04.328.084.52.346.726 1.38 1.08 1.868 2.553 1.56 4.226-.14.758-.597 1.455-.968 2.314.54.402 1.14.938 1.82 1.343 2.696 1.605 5.698 2.297 8.76 2.71 4.59.62 9.17.533 13.71-.43 2.418-.51 4.77-1.226 6.834-2.647 1.182-.814 2.23-1.783 2.258-3.355.043-2.463.015-4.925.015-7.387 0-.05-.03-.1-.06-.197-.21.057-.418.102-.618.17-5.06 1.685-10.123 3.367-15.18 5.07-.92.31-1.803.32-2.723.004-2.083-.718-4.178-1.404-6.268-2.1-3.004-1.004-6.008-2.004-9.194-3.065"/><path d="M0 35.442c.25-.274.456-.524.687-.752 2.57-2.537 4.084-5.596 4.546-9.18.04-.31-.005-.48-.29-.662-1.726-1.117-1.726-3.45-.03-4.637.158-.11.327-.308.355-.487.604-3.94.6-3.94 2.36-7.158l-4.34-1.456c-.396-.134-.796-.26-1.192-.394-.752-.254-1.073-.602-1.063-1.142.01-.53.314-.85 1.05-1.094C5.45 7.355 8.818 6.23 12.188 5.106c5.01-1.67 10.018-3.35 15.04-4.993.433-.142.99-.154 1.42-.012 8.39 2.772 16.77 5.574 25.147 8.376.27.09.562.204.766.392.607.56.348 1.465-.507 1.764-1.306.457-2.624.882-3.937 1.32-7.1 2.367-14.2 4.73-21.298 7.11-.58.194-1.11.21-1.695.012-4.28-1.442-8.566-2.862-12.85-4.29-.186-.062-.367-.137-.635-.24 1.055-.43 2.023-.848 3.007-1.224 3.81-1.456 7.623-2.902 11.438-4.344 1.045-.395 1.425-1.297.854-2.09-.357-.498-.932-.666-1.673-.395-2.715.995-5.432 1.982-8.124 3.033-2.252.88-4.467 1.853-6.706 2.767-2.71 1.106-4.044 3.21-4.428 6.02-.027.2-.052.4-.094.595-.156.716-.098 1.273.52 1.868 1.04.998.926 2.678-.114 3.688-.277.272-.316.504-.27.86.307 2.352.61 4.71.286 7.082-.265 1.92-1.122 3.53-2.738 4.674-.698.494-1.443.697-2.256.278-.94-.483-1.877-.968-2.807-1.467-.184-.1-.33-.27-.54-.445M11.138 16.742c3.187 1.06 6.19 2.06 9.194 3.063 2.09.696 4.185 1.383 6.267 2.1.92.318 1.8.308 2.723-.003 5.056-1.703 10.118-3.385 15.18-5.07.2-.068.407-.113.618-.17.03.096.06.147.06.198 0 2.462.027 4.924-.016 7.387-.028 1.572-1.076 2.54-2.258 3.355-2.063 1.422-4.416 2.14-6.833 2.648-4.54.962-9.122 1.048-13.71.43-3.062-.414-6.064-1.105-8.762-2.712-.68-.405-1.28-.94-1.818-1.343.37-.86.83-1.557.97-2.314.307-1.672-.18-3.144-1.562-4.225-.262-.205-.386-.398-.346-.726.104-.842.19-1.685.294-2.618"/>
    </symbol>

    <symbol id="mt-icon-speaking" viewBox="0 0 46.493 37.097">
        <path d="M27.32 29.966H7.365C2.507 29.966 0 27.156 0 22.602V7.365C0 2.727 2.697 0 7.364 0h31.764c4.69 0 7.365 2.6 7.365 7.365v15.237c0 3.915-1.522 7.05-7.406 6.73 1.294 2.2 2.987 4.66 3.005 4.686.37.554.428 1.26.148 1.866-.274.606-.846 1.025-1.507 1.106-.562.07-1.127.106-1.677.106-4.638 0-8.676-2.46-11.735-7.13M6.29 3.04c-2.062 0-3.546 1.678-3.546 3.742v16.175c0 2.062 1.484 3.74 3.546 3.74h22.32c.72 0 1.56.31 1.756 1 .92 3.232 4.502 5.663 8.147 6.24-.787-1.303-2.07-2.8-2.825-4.272-.323-.63-.295-1.387.075-1.994.372-.602 1.03-1.07 1.74-1.07h2.996c1.725 0 3.323-1.873 3.255-3.644V6.782c0-2.064-1.678-3.742-3.74-3.742H6.29zM29.086 15.438c0 1.385 1.125 2.51 2.512 2.51 1.386 0 2.51-1.125 2.51-2.51 0-1.388-1.124-2.51-2.51-2.51-1.387 0-2.512 1.122-2.512 2.51M20.27 15.438c0 1.385 1.124 2.51 2.51 2.51 1.39 0 2.512-1.125 2.512-2.51 0-1.388-1.123-2.51-2.51-2.51-1.388 0-2.512 1.122-2.512 2.51M11.452 15.438c0 1.385 1.125 2.51 2.512 2.51s2.51-1.125 2.51-2.51c0-1.388-1.123-2.51-2.51-2.51s-2.512 1.122-2.512 2.51"/>
    </symbol>

    <symbol id="mt-icon-star" viewBox="0 0 35.409 33.813">
        <path d="M19.07.992l3.196 9.835c.192.592.743.993 1.365.993h10.34c1.392 0 1.97 1.78.844 2.598l-8.362 6.072c-.504.366-.715 1.015-.522 1.606l3.195 9.83c.43 1.324-1.084 2.424-2.21 1.605l-8.366-6.078c-.504-.364-1.186-.364-1.69 0L8.497 33.53c-1.125.817-2.64-.282-2.21-1.606l3.195-9.828c.193-.592-.018-1.24-.52-1.606L.596 14.418C-.53 13.6.048 11.82 1.438 11.82h10.34c.62 0 1.174-.4 1.365-.993L16.34.992c.43-1.323 2.3-1.323 2.73 0"/>
    </symbol>

    <symbol id="mt-icon-timer" viewBox="0 0 35.185 40.771">
        <path d="M19.938 5.763V4.61h1.126V0H14.12v4.61h1.126V5.76c-1.875.25-3.652.8-5.294 1.595l-1.86-2.78-3.318 2.218 1.8 2.69C2.57 12.713 0 17.648 0 23.18c0 9.7 7.892 17.592 17.593 17.592 9.7 0 17.592-7.89 17.592-17.592 0-8.905-6.654-16.264-15.247-17.417M17.593 36.08c-7.114 0-12.9-5.787-12.9-12.9 0-7.114 5.786-12.9 12.9-12.9 7.11 0 12.9 5.786 12.9 12.9 0 7.113-5.79 12.9-12.9 12.9M18.766 21.193v-7.2H16.42v7.2c-.69.408-1.174 1.128-1.174 1.986 0 1.294 1.05 2.344 2.346 2.344 1.295 0 2.346-1.05 2.346-2.345 0-.86-.485-1.577-1.172-1.987"/>
    </symbol>

    <symbol id="mt-icon-to-do" viewBox="0 0 46.518 46.518">
        <path d="M41.053 0H5.466C2.446 0 0 2.447 0 5.466v35.587c0 3.02 2.446 5.465 5.466 5.465h35.587c3.02 0 5.465-2.446 5.465-5.465V5.466C46.518 2.446 44.07 0 41.053 0m1.59 41.053c0 .89-.7 1.59-1.59 1.59H5.466c-.89 0-1.59-.7-1.59-1.59V5.466c0-.89.7-1.59 1.59-1.59h35.57l.013-.014c.888 0 1.592.714 1.592 1.604v35.587zM34.185 20.612H18.847c-.753 0-1.362-.61-1.362-1.364v-.83c0-.753.61-1.363 1.362-1.363h15.338c.753 0 1.363.61 1.363 1.363v.83c0 .754-.61 1.364-1.363 1.364M17.463 11.38v-1.11c0-.668.54-1.21 1.207-1.21h15.663c.667 0 1.207.542 1.207 1.21v1.11c0 .668-.54 1.208-1.207 1.208H18.67c-.666 0-1.207-.54-1.207-1.207M17.465 27.525V26.36c0-.652.53-1.183 1.183-1.183h15.71c.655 0 1.185.53 1.185 1.184v1.165c0 .652-.53 1.183-1.184 1.183H18.646c-.652 0-1.182-.53-1.182-1.183M13.106 20.603H11.8c-.616 0-1.115-.5-1.115-1.116v-1.313c0-.616.5-1.115 1.115-1.115h1.306c.615 0 1.115.498 1.115 1.114v1.313c.002.617-.498 1.116-1.114 1.116M13.304 12.6H11.62c-.506 0-.917-.41-.917-.918V9.974c0-.506.41-.917.917-.917h1.684c.507 0 .918.41.918.917v1.708c0 .506-.41.918-.918.918M11.63 25.16h1.666c.51 0 .926.414.926.926v1.69c0 .513-.415.927-.926.927H11.63c-.513 0-.928-.414-.928-.926v-1.69c0-.513.415-.928.927-.928M17.465 35.586v-1.164c0-.653.53-1.183 1.183-1.183h15.71c.655 0 1.185.528 1.185 1.182v1.164c0 .653-.53 1.183-1.184 1.183H18.646c-.652 0-1.182-.53-1.182-1.184M11.63 33.22h1.666c.51 0 .926.416.926.927v1.692c0 .51-.415.925-.926.925H11.63c-.513 0-.928-.415-.928-.926v-1.693c0-.51.415-.927.927-.927"/>
    </symbol>

    <symbol id="mt-icon-tools" viewBox="0 0 42.802 42.802">
        <path d="M2.508 0c1.645 1.132 3.274 2.286 4.94 3.386.734.48 1.29 1.06 1.51 1.912.593 2.312 1.894 4.135 3.652 5.735 1.913 1.742 3.68 3.645 5.512 5.476.212.21.434.414.78.744.622-.68 1.187-1.332 1.79-1.946.856-.873 1.384-.922 2.153-.015.82.966 1.662 1.972 2.206 3.1.867 1.798 2.028 3.207 3.78 4.19 2.763 1.555 5.103 3.64 7.284 5.935 2.184 2.297 4.454 4.51 6.687 6.76v.67L35.947 42.8h-.502c-.666-.625-1.346-1.236-1.997-1.877-1.27-1.25-2.486-2.56-3.794-3.77-3.04-2.82-5.672-5.955-7.836-9.506-.503-.828-1.412-1.494-2.27-1.998-1.488-.872-3.074-1.563-4.265-2.88-.767-.85-.804-1.25-.012-2.045.628-.63 1.276-1.243 1.98-1.924-.244-.266-.437-.49-.645-.698-2.185-2.188-4.402-4.344-6.548-6.57-.975-1.013-2.04-1.826-3.402-2.152C4.825 8.945 3.598 7.86 2.67 6.25 1.88 4.89.895 3.64 0 2.34v-.5C.612 1.225 1.226.61 1.84 0h.668zM35.78 0c.35.428.056.703-.228.987-1.045 1.042-2.07 2.104-3.135 3.126-1.267 1.22-1.578 2.707-1.265 4.363.683 3.612 5.303 3.93 7.166 2.028 1.09-1.114 2.193-2.218 3.314-3.3.215-.206.542-.297.817-.44.075.283.243.577.213.848-.192 1.706-.293 3.44-.677 5.104-1.003 4.353-6.23 7.87-11.273 6.104-.24-.084-.657.02-.853.193-.598.535-.886.922-1.6 1.666-.503-.706-.966-1.273-1.34-1.895-.57-.95-.998-1.997-1.64-2.896-.636-.894-1.458-1.653-2.267-2.546 1.185-.62.862-1.35.594-2.585-.94-4.334 1.898-8.816 6.25-10.065 1.01-.29 2.05-.468 3.077-.696h2.845zM0 37.45c.42-1.442 1.414-2.47 2.447-3.493 3.544-3.51 7.06-7.05 10.58-10.582.216-.215.04-.108.307-.425 1.465 2.03 3.466 3.098 5.51 4.123.578.29 1.066.76 1.68 1.207-.312.33-.16.193-.37.403-4.076 4.078-8.226 8.09-12.21 12.26-2.868 3-7.194 1.52-7.842-1.86C.092 39.038.035 39 0 38.957V37.45zm4.63-1.093c-.873.017-1.605.745-1.61 1.602-.005.87.798 1.662 1.67 1.644.863-.02 1.586-.755 1.59-1.62.003-.923-.73-1.645-1.65-1.627"/>
    </symbol>

    <symbol id="mt-icon-transcript" viewBox="0 0 46.52 46.518">
        <path d="M41.053 0H5.466C2.446 0 0 2.447 0 5.466v35.587c0 3.02 2.447 5.465 5.466 5.465h35.587c3.02 0 5.467-2.446 5.467-5.465V5.466C46.52 2.446 44.072 0 41.053 0m1.59 41.053c0 .89-.7 1.59-1.59 1.59H5.466c-.89 0-1.59-.7-1.59-1.59V5.466c0-.89.7-1.59 1.59-1.59h35.57l.013-.014c.89 0 1.593.714 1.593 1.604v35.587zM35.275 20.76H12.168c-.753 0-1.363-.61-1.363-1.365v-.83c0-.753.61-1.363 1.363-1.363h23.107c.753 0 1.364.61 1.364 1.363v.83c0 .754-.612 1.364-1.365 1.364M10.784 11.528v-1.112c0-.667.54-1.208 1.207-1.208h23.434c.667 0 1.208.54 1.208 1.208v1.112c0 .667-.54 1.207-1.208 1.207H11.99c-.665 0-1.206-.54-1.206-1.207M10.785 27.575V26.41c0-.652.53-1.182 1.184-1.182h23.48c.653 0 1.184.53 1.184 1.183v1.165c0 .653-.53 1.183-1.184 1.183H11.97c-.655 0-1.185-.53-1.185-1.183M10.785 35.54v-1.164c0-.653.53-1.183 1.184-1.183H26.61c.653 0 1.183.53 1.183 1.183v1.164c0 .653-.53 1.183-1.183 1.183H11.97c-.655 0-1.185-.53-1.185-1.183"/>
    </symbol>

    <symbol id="mt-icon-writing" viewBox="0 0 31.2 28.989">
        <path d="M23.157 12.415l1.698 1.88c-.1.067-.227.133-.328.226-4.262 3.82-8.53 7.633-12.772 11.474-.53.48-1.094.77-1.78.928-2.817.653-5.625 1.343-8.437 2.017-.63.15-1.1-.03-1.39-.52-.193-.325-.18-.672-.063-1.008 1.034-2.985 2.07-5.97 3.12-8.948.074-.205.22-.41.383-.557 2.82-2.534 5.65-5.06 8.476-7.587 1.617-1.447 3.23-2.896 4.844-4.347.08-.073.13-.177.187-.252.53.59 1 1.11 1.53 1.698-.095.06-.225.123-.326.215-4.256 3.843-8.51 7.687-12.755 11.54-.16.145-.3.348-.37.55-.57 1.59-1.116 3.19-1.678 4.782-.062.18-.06.31.084.45.242.238.47.49.683.753.135.17.27.18.466.133 1.56-.38 3.13-.747 4.69-1.135.2-.05.407-.164.562-.303 4.324-3.9 8.64-7.806 12.958-11.712.086-.08.148-.187.217-.275M19.855 8.756c.037.037.088.083.135.134l1.833 2.005c-4.51 4.09-8.993 8.16-13.496 12.247-.052-.474-.115-.943-.15-1.416-.015-.193-.087-.273-.272-.32-.52-.13-1.033-.284-1.52-.42l13.47-12.23M29.076 9.933l-7.37-8.13c.574-.477 1.112-1.044 1.758-1.43 1.123-.67 2.43-.414 3.356.585 1.224 1.32 2.434 2.652 3.623 4.003 1.093 1.243.988 2.838-.223 3.962-.377.35-.772.683-1.144 1.01M20.308 2.896c2.572 2.842 5.116 5.65 7.682 8.487l-1.87 1.585-7.682-8.486c.62-.524 1.247-1.057 1.87-1.586"/>
    </symbol>

    <symbol id="mt-icon-writing-box" viewBox="0 0 46.52 46.518">
        <path d="M30.983 21.763l1.698 1.88c-.1.067-.225.133-.328.226-4.26 3.817-8.528 7.63-12.77 11.472-.533.48-1.096.77-1.784.928-2.815.654-5.623 1.344-8.434 2.017-.63.15-1.1-.03-1.39-.52-.194-.324-.18-.67-.063-1.007 1.034-2.984 2.07-5.97 3.122-8.947.072-.206.218-.41.382-.557 2.82-2.535 5.648-5.06 8.475-7.588 1.616-1.447 3.23-2.896 4.843-4.347.08-.072.132-.176.187-.25.53.587 1 1.11 1.53 1.696-.094.06-.224.123-.325.215-4.254 3.844-8.507 7.688-12.753 11.54-.16.145-.3.348-.372.552-.568 1.59-1.115 3.188-1.676 4.78-.062.18-.06.31.084.452.24.236.47.487.68.752.136.17.272.18.467.13 1.563-.38 3.13-.745 4.692-1.134.2-.05.406-.164.56-.303 4.325-3.9 8.643-7.806 12.96-11.713.086-.08.148-.186.216-.274M27.683 18.104c.036.037.088.083.134.134l1.833 2.005c-4.508 4.09-8.993 8.16-13.496 12.248-.052-.474-.115-.943-.15-1.415-.015-.193-.087-.274-.272-.32-.52-.132-1.033-.285-1.52-.42 4.486-4.075 8.975-8.15 13.47-12.23M36.902 19.28c-2.442-2.692-4.885-5.387-7.37-8.13.574-.476 1.112-1.043 1.758-1.43 1.123-.67 2.43-.413 3.356.586 1.224 1.32 2.435 2.652 3.623 4.003 1.092 1.24.987 2.836-.224 3.96-.377.35-.772.683-1.144 1.01M28.134 12.244l7.683 8.487c-.618.525-1.25 1.062-1.87 1.586l-7.683-8.486 1.87-1.586"/><path d="M41.053 0H5.466C2.446 0 0 2.447 0 5.466v35.587c0 3.02 2.447 5.465 5.466 5.465h35.587c3.02 0 5.467-2.446 5.467-5.465V5.466C46.52 2.446 44.072 0 41.053 0m1.59 41.053c0 .89-.7 1.59-1.59 1.59H5.466c-.89 0-1.59-.7-1.59-1.59V5.466c0-.89.7-1.59 1.59-1.59h35.57l.013-.013c.89 0 1.593.713 1.593 1.603v35.587z"/>
    </symbol>

    <symbol id="mt-icon-zoom" viewBox="0 0 33.31 33.311">
        <path d="M32.394 27.97l-7.33-7.33c1.275-2.067 2.048-4.478 2.048-7.084C27.112 6.068 21.042 0 13.555 0S0 6.068 0 13.555C0 21.04 6.068 27.11 13.555 27.11c2.607 0 5.02-.772 7.082-2.046l7.333 7.33c1.223 1.222 3.2 1.222 4.424 0 1.22-1.222 1.22-3.203 0-4.425m-18.84-5.03c-5.18 0-9.383-4.204-9.383-9.385 0-5.182 4.203-9.384 9.385-9.384 5.183 0 9.386 4.203 9.386 9.385 0 5.18-4.203 9.384-9.385 9.384"/>
    </symbol>
</svg>